<?xml version="1.0" encoding="iso-8859-1"?>
<!-- Generator: Adobe Illustrator 26.0.1, SVG Export Plug-In . SVG Version: 6.00 Build 0)  -->
<svg version="1.1" id="Layer_1" xmlns="http://www.w3.org/2000/svg" xmlns:xlink="http://www.w3.org/1999/xlink" x="0px" y="0px"
	 viewBox="0 0 500 500" style="enable-background:new 0 0 500 500;" xml:space="preserve">
<g id="watermark_1_">
	<g>
		<g id="watermark" style="opacity:0.61;">
			<g>
				<g>
					<g>
						<g>
							<polygon style="fill:#FFFFFF;" points="213.765,461.172 208.204,474.017 205.268,474.017 199.726,461.172 202.938,461.172 
								206.846,470.347 210.81,461.172 							"/>
						</g>
						<g>
							<path style="fill:#FFFFFF;" d="M223.507,469.741h-7.469c0.275,1.23,1.321,1.982,2.826,1.982c1.046,0,1.798-0.312,2.477-0.954
								l1.523,1.651c-0.917,1.046-2.294,1.597-4.074,1.597c-3.413,0-5.634-2.147-5.634-5.083c0-2.954,2.257-5.083,5.267-5.083
								c2.899,0,5.138,1.945,5.138,5.12C223.562,469.191,223.526,469.503,223.507,469.741 M216.002,468.071h4.863
								c-0.202-1.248-1.138-2.055-2.422-2.055C217.139,466.016,216.204,466.805,216.002,468.071"/>
						</g>
						<g>
							<path style="fill:#FFFFFF;" d="M224.735,468.934c0-2.973,2.294-5.083,5.505-5.083c2.074,0,3.707,0.899,4.423,2.514
								l-2.22,1.193c-0.532-0.936-1.321-1.358-2.221-1.358c-1.45,0-2.587,1.009-2.587,2.734c0,1.725,1.138,2.734,2.587,2.734
								c0.899,0,1.688-0.404,2.221-1.358l2.22,1.211c-0.716,1.578-2.349,2.495-4.423,2.495
								C227.029,474.017,224.735,471.907,224.735,468.934"/>
						</g>
						<g>
							<path style="fill:#FFFFFF;" d="M242.828,473.393c-0.587,0.422-1.45,0.624-2.331,0.624c-2.33,0-3.688-1.193-3.688-3.542
								v-4.055h-1.523v-2.202h1.523v-2.404h2.863v2.404h2.459v2.202h-2.459v4.019c0,0.844,0.458,1.303,1.229,1.303
								c0.422,0,0.844-0.128,1.156-0.367L242.828,473.393z"/>
						</g>
					</g>
					<g>
						<path style="fill:#FFFFFF;" d="M262.474,463.997v2.643c-0.238-0.018-0.422-0.037-0.642-0.037
							c-1.578,0-2.624,0.862-2.624,2.753v4.661h-2.863v-9.873h2.734v1.303C259.776,464.493,260.951,463.997,262.474,463.997"/>
					</g>
					<g>
						<path style="fill:#FFFFFF;" d="M263.299,472.53l1.009-2.239c1.083,0.789,2.697,1.339,4.239,1.339
							c1.762,0,2.477-0.587,2.477-1.376c0-2.404-7.469-0.752-7.469-5.524c0-2.184,1.762-4,5.413-4c1.615,0,3.267,0.385,4.459,1.138
							l-0.918,2.257c-1.193-0.679-2.422-1.009-3.56-1.009c-1.761,0-2.44,0.66-2.44,1.468c0,2.367,7.468,0.734,7.468,5.45
							c0,2.147-1.78,3.982-5.45,3.982C266.492,474.017,264.437,473.411,263.299,472.53"/>
					</g>
					<g>
						<path style="fill:#FFFFFF;" d="M285.428,469.741h-7.469c0.275,1.23,1.321,1.982,2.826,1.982c1.046,0,1.798-0.312,2.477-0.954
							l1.523,1.651c-0.918,1.046-2.294,1.597-4.074,1.597c-3.413,0-5.634-2.147-5.634-5.083c0-2.954,2.257-5.083,5.267-5.083
							c2.9,0,5.138,1.945,5.138,5.12C285.484,469.191,285.447,469.503,285.428,469.741 M277.923,468.071h4.863
							c-0.202-1.248-1.138-2.055-2.422-2.055C279.061,466.016,278.125,466.805,277.923,468.071"/>
					</g>
					<g>
						<path style="fill:#FFFFFF;" d="M297.007,469.741h-7.469c0.275,1.23,1.321,1.982,2.826,1.982c1.046,0,1.798-0.312,2.477-0.954
							l1.523,1.651c-0.918,1.046-2.294,1.597-4.074,1.597c-3.413,0-5.634-2.147-5.634-5.083c0-2.954,2.257-5.083,5.267-5.083
							c2.899,0,5.138,1.945,5.138,5.12C297.062,469.191,297.025,469.503,297.007,469.741 M289.501,468.071h4.863
							c-0.202-1.248-1.138-2.055-2.422-2.055C290.639,466.016,289.703,466.805,289.501,468.071"/>
					</g>
					<g>
						<polygon style="fill:#FFFFFF;" points="303.208,470.145 301.831,471.503 301.831,474.017 298.969,474.017 298.969,460.401 
							301.831,460.401 301.831,468.108 306.016,464.144 309.429,464.144 305.318,468.328 309.796,474.017 306.327,474.017 						"/>
					</g>
					<g>
						<path style="fill:#FFFFFF;" d="M256.601,475.359L256.601,475.359l-2.86-2.86c-0.435,0.508-0.953,0.943-1.534,1.284
							c-0.092,0.069-0.186,0.136-0.283,0.199l3.027,3.027c0.456,0.456,1.195,0.456,1.65,0
							C257.057,476.554,257.057,475.815,256.601,475.359"/>
					</g>
					<g>
						<path style="fill:#FFFFFF;" d="M249.984,463.244c0.221-0.173,0.495-0.281,0.797-0.281c0.042,0,0.083,0.002,0.124,0.006
							c-0.214-0.156-0.478-0.249-0.764-0.249c-0.395,0-0.744,0.18-0.981,0.458c-0.051,0-0.1,0.006-0.151,0.008
							c0.039-0.077,0.064-0.162,0.064-0.255c0-0.234-0.143-0.434-0.346-0.519c0.087,0.126,0.138,0.279,0.138,0.445
							c0,0.122-0.031,0.237-0.081,0.341c-2.811,0.201-5.03,2.539-5.03,5.4c0,2.993,2.426,5.42,5.42,5.42
							c2.993,0,5.42-2.426,5.42-5.42C254.595,465.879,252.593,463.635,249.984,463.244 M247.983,464.656
							c0.435,0,0.844,0.112,1.199,0.309c0.374-0.245,0.82-0.387,1.299-0.387c0.711,0,1.348,0.312,1.784,0.806
							c-0.435-0.379-1.004-0.61-1.627-0.61c-0.449,0-0.87,0.12-1.234,0.329c-0.079,0.046-0.156,0.096-0.229,0.15
							c-0.065-0.048-0.133-0.093-0.204-0.134c-0.369-0.219-0.8-0.344-1.26-0.344c-0.3,0-0.588,0.054-0.854,0.152
							C247.196,464.754,247.578,464.656,247.983,464.656 M251.772,469.098c0.115,0.305,0.181,0.634,0.181,0.979
							c0,1.534-1.244,2.777-2.778,2.777c-1.534,0-2.777-1.243-2.777-2.777c0-0.345,0.066-0.674,0.181-0.979
							c-0.62-0.382-1.035-1.064-1.035-1.846c0-1.197,0.971-2.168,2.168-2.168c0.565,0,1.078,0.218,1.463,0.572
							c0.386-0.354,0.899-0.572,1.464-0.572c1.197,0,2.168,0.971,2.168,2.168C252.807,468.034,252.392,468.716,251.772,469.098"/>
					</g>
					<g>
						<path style="fill:#FFFFFF;" d="M251.666,467.061c0,0.497-0.404,0.901-0.901,0.901c-0.497,0-0.901-0.404-0.901-0.901
							s0.404-0.901,0.901-0.901c0.101,0,0.197,0.017,0.287,0.047c-0.03,0.062-0.045,0.132-0.045,0.204
							c0,0.273,0.221,0.494,0.494,0.494c0.05,0,0.099-0.008,0.146-0.022C251.66,466.941,251.666,467,251.666,467.061"/>
					</g>
					<g>
						<path style="fill:#FFFFFF;" d="M248.255,467.061c0,0.376-0.305,0.681-0.681,0.681c-0.376,0-0.681-0.305-0.681-0.681
							s0.305-0.681,0.681-0.681c0.076,0,0.149,0.013,0.217,0.035c-0.023,0.047-0.034,0.1-0.034,0.155
							c0,0.206,0.167,0.374,0.374,0.374c0.038,0,0.075-0.006,0.11-0.017C248.25,466.97,248.255,467.015,248.255,467.061"/>
					</g>
					<g>
						<g>
							<g>
								<rect x="242.908" y="467.83" style="fill:#FFFFFF;" width="0.616" height="0.616"/>
							</g>
							<g>
								<rect x="254.827" y="467.83" style="fill:#FFFFFF;" width="0.616" height="0.616"/>
							</g>
							<g>
								<path style="fill:#FFFFFF;" d="M255.205,468.082h-0.14c0-3.248-2.642-5.89-5.89-5.89c-3.248,0-5.89,2.642-5.89,5.89h-0.14
									c0-1.611,0.627-3.125,1.766-4.264c1.139-1.139,2.653-1.766,4.264-1.766c1.611,0,3.125,0.627,4.264,1.766
									C254.578,464.957,255.205,466.471,255.205,468.082"/>
							</g>
						</g>
						<g>
							<rect x="248.868" y="461.814" style="fill:#FFFFFF;" width="0.616" height="0.616"/>
						</g>
						<g>
							<rect x="244.95" y="462.052" style="fill:#FFFFFF;" width="8.45" height="0.14"/>
						</g>
						<g>
							<path style="fill:#FFFFFF;" d="M245.174,462.15c0,0.108-0.088,0.196-0.196,0.196c-0.108,0-0.196-0.088-0.196-0.196
								c0-0.108,0.088-0.196,0.196-0.196C245.086,461.954,245.174,462.042,245.174,462.15"/>
						</g>
						<g>
							<path style="fill:#FFFFFF;" d="M253.596,462.15c0,0.108-0.088,0.196-0.196,0.196c-0.108,0-0.196-0.088-0.196-0.196
								c0-0.108,0.088-0.196,0.196-0.196C253.509,461.954,253.596,462.042,253.596,462.15"/>
						</g>
					</g>
				</g>
				<g>
					<path style="fill:#FFFFFF;" d="M314.356,473.409c0,1.559-2.364,1.559-2.364,0C311.993,471.851,314.356,471.851,314.356,473.409
						z"/>
				</g>
				<g>
					<g>
						<g>
							<path style="fill:#FFFFFF;" d="M161.739,466.549l1.772,6.088l1.855-6.088h2.215l-2.823,8.14h-2.33l-0.837-2.396l-0.722-2.708
								l-0.722,2.708l-0.837,2.396h-2.33l-2.839-8.14h2.231l1.855,6.088l1.756-6.088H161.739z"/>
						</g>
						<g>
							<path style="fill:#FFFFFF;" d="M176.713,466.549l1.772,6.088l1.855-6.088h2.215l-2.823,8.14h-2.33l-0.837-2.396l-0.722-2.708
								l-0.722,2.708l-0.837,2.396h-2.33l-2.839-8.14h2.231l1.855,6.088l1.756-6.088H176.713z"/>
						</g>
						<g>
							<path style="fill:#FFFFFF;" d="M191.687,466.549l1.772,6.088l1.855-6.088h2.215l-2.823,8.14h-2.33l-0.837-2.396l-0.722-2.708
								l-0.722,2.708l-0.837,2.396h-2.33l-2.839-8.14h2.231l1.855,6.088l1.756-6.088H191.687z"/>
						</g>
					</g>
					<g>
						<path style="fill:#FFFFFF;" d="M200.908,473.52c0,1.559-2.364,1.559-2.364,0C198.545,471.962,200.908,471.962,200.908,473.52z
							"/>
					</g>
					<g>
						<path style="fill:#FFFFFF;" d="M322.71,473.409c-0.935,0.919-1.919,1.28-3.117,1.28c-2.346,0-4.3-1.411-4.3-4.282
							s1.953-4.284,4.3-4.284c1.149,0,2.035,0.329,2.921,1.199l-1.264,1.329c-0.476-0.428-1.066-0.64-1.623-0.64
							c-1.346,0-2.33,0.985-2.33,2.396c0,1.542,1.05,2.362,2.297,2.362c0.64,0,1.28-0.18,1.772-0.672L322.71,473.409z"/>
					</g>
					<g>
						<path style="fill:#FFFFFF;" d="M331.805,470.472c0,2.33-1.591,4.217-4.217,4.217c-2.626,0-4.201-1.887-4.201-4.217
							c0-2.314,1.609-4.217,4.185-4.217C330.149,466.255,331.805,468.158,331.805,470.472z M325.389,470.472
							c0,1.231,0.739,2.38,2.199,2.38c1.46,0,2.199-1.149,2.199-2.38c0-1.215-0.854-2.396-2.199-2.396
							C326.144,468.077,325.389,469.258,325.389,470.472z"/>
					</g>
					<g>
						<path style="fill:#FFFFFF;" d="M338.572,474.689v-4.332c0-1.068-0.559-2.035-1.658-2.035c-1.082,0-1.722,0.967-1.722,2.035
							v4.332h-2.003v-8.107h1.855l0.148,0.985c0.426-0.82,1.362-1.116,2.133-1.116c0.969,0,1.937,0.394,2.396,1.51
							c0.723-1.149,1.658-1.478,2.708-1.478c2.297,0,3.43,1.412,3.43,3.84v4.365h-2.003v-4.365c0-1.066-0.442-1.97-1.526-1.97
							c-1.082,0-1.756,0.935-1.756,2.003v4.332H338.572z"/>
					</g>
				</g>
			</g>
		</g>
		<g style="opacity:0.61;">
			<g>
				<g>
					<path style="fill:#FFFFFF;" d="M345.988,431.299c-0.006-1.224-0.959-2.121-2.189-2.14c-0.924-0.014-0.832,0.12-0.834-0.867
						c-0.003-1.097-0.007-2.194,0.003-3.292c0.003-0.379-0.112-0.691-0.362-0.976c-2.342-2.668-4.678-5.342-7.019-8.011
						c-0.12-0.137-0.275-0.244-0.414-0.366c-6.214,0-12.427,0-18.641,0c-0.794,0.293-1.14,0.868-1.138,1.709
						c0.01,3.748,0.004,7.496,0.004,11.243c0,0.556-0.003,0.589-0.55,0.551c-1.497-0.102-2.516,0.986-2.497,2.492
						c0.044,3.476,0.013,6.953,0.014,10.429c0.001,1.58,0.867,2.443,2.45,2.449c0.582,0.002,0.582,0.002,0.582,0.6
						c0,2.219-0.001,4.438,0.001,6.657c0.001,1.192,0.58,1.771,1.768,1.771c8.013,0.001,16.027,0.001,24.04,0
						c1.168,0,1.755-0.583,1.757-1.745c0.002-2.256,0-4.512,0.001-6.768c0-0.512,0.002-0.511,0.52-0.515
						c0.271-0.002,0.541,0.008,0.809-0.058c0.996-0.246,1.69-1.044,1.694-2.069C346.003,438.696,346.005,434.997,345.988,431.299z
						 M317.537,417.162c5.337,0,10.674,0,16.01,0c0.548,0,0.554,0.007,0.554,0.561c0.001,2.243-0.001,4.486,0.001,6.73
						c0.001,0.811,0.249,1.059,1.06,1.059c1.91,0.001,3.821,0,5.731,0.001c0.458,0,0.479,0.021,0.481,0.483
						c0.003,0.887,0.002,1.775,0,2.662c-0.001,0.477-0.024,0.498-0.504,0.499c-3.895,0.001-7.79,0-11.684,0
						c-3.882,0-7.765,0-11.647,0c-0.55,0-0.552-0.001-0.552-0.561c-0.001-3.624-0.001-7.247,0-10.871
						C316.987,417.166,316.991,417.162,317.537,417.162z M340.822,451.579c-3.883,0.001-7.766,0-11.65,0c-3.871,0-7.742,0-11.613,0
						c-0.572,0-0.574-0.002-0.574-0.579c-0.001-1.997-0.001-3.994,0.001-5.991c0-0.464,0.023-0.486,0.478-0.487
						c7.803-0.001,15.607-0.001,23.41,0c0.478,0,0.499,0.02,0.499,0.503c0.002,1.997,0.001,3.994,0,5.991
						C341.375,451.574,341.37,451.579,340.822,451.579z"/>
				</g>
				<g>
					<g>
						<rect x="327.418" y="417.053" style="fill:#FFFFFF;" width="1.757" height="1.054"/>
					</g>
					<g>
						<rect x="325.662" y="418.107" style="fill:#FFFFFF;" width="1.757" height="1.054"/>
					</g>
					<g>
						<rect x="327.418" y="419.161" style="fill:#FFFFFF;" width="1.757" height="1.054"/>
					</g>
					<g>
						<rect x="325.662" y="420.215" style="fill:#FFFFFF;" width="1.757" height="1.054"/>
					</g>
					<g>
						<rect x="327.418" y="421.269" style="fill:#FFFFFF;" width="1.757" height="1.054"/>
					</g>
					<g>
						<rect x="325.662" y="422.323" style="fill:#FFFFFF;" width="1.757" height="1.054"/>
					</g>
					<g>
						<rect x="327.418" y="423.378" style="fill:#FFFFFF;" width="1.757" height="1.054"/>
					</g>
					<g>
						<rect x="325.662" y="424.432" style="fill:#FFFFFF;" width="1.757" height="1.054"/>
					</g>
					<g>
						<rect x="327.418" y="425.486" style="fill:#FFFFFF;" width="1.757" height="1.054"/>
					</g>
					<g>
						<rect x="325.662" y="426.54" style="fill:#FFFFFF;" width="1.757" height="1.054"/>
					</g>
					<g>
						<rect x="327.418" y="427.594" style="fill:#FFFFFF;" width="1.757" height="1.054"/>
					</g>
					<g>
						<rect x="325.662" y="428.648" style="fill:#FFFFFF;" width="1.757" height="1.054"/>
					</g>
				</g>
			</g>
			<g>
				<path style="fill:#FFFFFF;" d="M187.637,431.299c-0.006-1.224-0.959-2.121-2.189-2.14c-0.924-0.014-0.832,0.12-0.834-0.867
					c-0.003-1.097-0.007-2.194,0.003-3.292c0.003-0.379-0.112-0.691-0.362-0.976c-2.342-2.668-4.678-5.342-7.019-8.011
					c-0.12-0.137-0.275-0.244-0.414-0.366c-6.214,0-12.427,0-18.641,0c-0.794,0.293-1.14,0.868-1.138,1.709
					c0.01,3.748,0.004,7.496,0.004,11.243c0,0.556-0.003,0.589-0.55,0.551c-1.497-0.102-2.516,0.986-2.497,2.492
					c0.044,3.476,0.013,6.953,0.014,10.429c0.001,1.58,0.867,2.443,2.45,2.449c0.582,0.002,0.582,0.002,0.582,0.6
					c0,2.219-0.001,4.438,0.001,6.657c0.001,1.192,0.58,1.771,1.768,1.771c8.013,0.001,16.027,0.001,24.04,0
					c1.168,0,1.755-0.583,1.757-1.745c0.002-2.256,0-4.512,0.001-6.768c0-0.512,0.002-0.511,0.52-0.515
					c0.271-0.002,0.541,0.008,0.809-0.058c0.996-0.246,1.69-1.044,1.694-2.069C187.652,438.696,187.655,434.997,187.637,431.299z
					 M159.187,417.162c5.337,0,10.674,0,16.01,0c0.548,0,0.554,0.007,0.554,0.561c0.001,2.243-0.001,4.486,0.001,6.73
					c0.001,0.811,0.249,1.059,1.06,1.059c1.91,0.001,3.821,0,5.731,0.001c0.458,0,0.479,0.021,0.481,0.483
					c0.003,0.887,0.002,1.775,0,2.662c-0.001,0.477-0.024,0.498-0.504,0.499c-3.895,0.001-7.79,0-11.684,0
					c-3.882,0-7.765,0-11.647,0c-0.55,0-0.552-0.001-0.552-0.561c-0.001-3.624-0.001-7.247,0-10.871
					C158.636,417.166,158.64,417.162,159.187,417.162z M182.472,451.579c-3.883,0.001-7.766,0-11.65,0c-3.871,0-7.742,0-11.613,0
					c-0.572,0-0.574-0.002-0.574-0.579c-0.001-1.997-0.001-3.994,0.001-5.991c0-0.464,0.023-0.486,0.478-0.487
					c7.803-0.001,15.607-0.001,23.41,0c0.478,0,0.499,0.02,0.499,0.503c0.002,1.997,0.001,3.994,0,5.991
					C183.024,451.574,183.019,451.579,182.472,451.579z"/>
			</g>
			<g>
				<path style="fill:#FFFFFF;" d="M159.779,440.669v-7.897h2.779c0.375,0,0.726,0.061,1.053,0.182
					c0.327,0.121,0.612,0.292,0.855,0.513c0.242,0.221,0.434,0.483,0.573,0.789c0.14,0.305,0.21,0.642,0.21,1.009
					c0,0.375-0.07,0.715-0.21,1.02c-0.14,0.305-0.331,0.568-0.573,0.789c-0.243,0.221-0.528,0.392-0.855,0.513
					c-0.327,0.121-0.678,0.182-1.053,0.182h-1.29v2.901H159.779z M162.58,436.356c0.39,0,0.684-0.111,0.882-0.331
					c0.199-0.22,0.298-0.474,0.298-0.761c0-0.14-0.024-0.276-0.072-0.408c-0.048-0.132-0.121-0.248-0.221-0.347
					c-0.099-0.099-0.223-0.178-0.37-0.237c-0.147-0.059-0.32-0.089-0.518-0.089h-1.312v2.173H162.58z"/>
				<path style="fill:#FFFFFF;" d="M166.308,432.771h1.731l3.177,5.294h0.088l-0.088-1.522v-3.772h1.478v7.897h-1.566l-3.353-5.592
					h-0.088l0.088,1.522v4.07h-1.467V432.771z"/>
				<path style="fill:#FFFFFF;" d="M177.922,436.334h3.872c0.022,0.089,0.04,0.195,0.055,0.32c0.014,0.125,0.022,0.25,0.022,0.375
					c0,0.507-0.077,0.985-0.231,1.434c-0.154,0.449-0.397,0.849-0.728,1.202c-0.353,0.375-0.776,0.666-1.268,0.871
					c-0.493,0.206-1.055,0.309-1.688,0.309c-0.574,0-1.114-0.103-1.622-0.309c-0.507-0.206-0.948-0.492-1.323-0.86
					c-0.375-0.367-0.673-0.803-0.894-1.307c-0.221-0.504-0.331-1.053-0.331-1.649c0-0.595,0.11-1.145,0.331-1.649
					c0.221-0.504,0.518-0.939,0.894-1.307c0.375-0.367,0.816-0.654,1.323-0.86c0.507-0.206,1.048-0.309,1.622-0.309
					c0.64,0,1.211,0.11,1.715,0.331c0.504,0.221,0.935,0.526,1.296,0.915l-1.025,1.004c-0.258-0.272-0.544-0.48-0.861-0.623
					c-0.316-0.143-0.695-0.215-1.136-0.215c-0.361,0-0.703,0.065-1.026,0.193c-0.324,0.129-0.607,0.311-0.85,0.546
					c-0.242,0.235-0.436,0.52-0.579,0.855c-0.143,0.335-0.215,0.708-0.215,1.119c0,0.412,0.072,0.785,0.215,1.12
					c0.143,0.335,0.338,0.62,0.584,0.855c0.246,0.235,0.531,0.418,0.855,0.546c0.323,0.129,0.669,0.193,1.037,0.193
					c0.419,0,0.773-0.061,1.064-0.182c0.29-0.121,0.538-0.278,0.744-0.469c0.148-0.132,0.275-0.3,0.381-0.502
					c0.106-0.202,0.189-0.428,0.248-0.678h-2.482V436.334z"/>
			</g>
			<g>
				<path style="fill:#FFFFFF;" d="M224.019,431.299c-0.006-1.224-0.959-2.121-2.189-2.14c-0.924-0.014-0.832,0.12-0.834-0.867
					c-0.003-1.097-0.007-2.194,0.003-3.292c0.003-0.379-0.112-0.691-0.362-0.976c-2.342-2.668-4.678-5.342-7.019-8.011
					c-0.12-0.137-0.275-0.244-0.414-0.366c-6.214,0-12.427,0-18.641,0c-0.794,0.293-1.14,0.868-1.138,1.709
					c0.01,3.748,0.004,7.496,0.004,11.243c0,0.556-0.003,0.589-0.55,0.551c-1.497-0.102-2.516,0.986-2.497,2.492
					c0.044,3.476,0.013,6.953,0.014,10.429c0.001,1.58,0.867,2.443,2.45,2.449c0.582,0.002,0.582,0.002,0.582,0.6
					c0,2.219-0.001,4.438,0.001,6.657c0.001,1.192,0.58,1.771,1.768,1.771c8.013,0.001,16.027,0.001,24.04,0
					c1.168,0,1.755-0.583,1.757-1.745c0.002-2.256,0-4.512,0.001-6.768c0-0.512,0.002-0.511,0.52-0.515
					c0.271-0.002,0.541,0.008,0.809-0.058c0.997-0.246,1.69-1.044,1.694-2.069C224.034,438.696,224.036,434.997,224.019,431.299z
					 M195.568,417.162c5.337,0,10.674,0,16.01,0c0.548,0,0.554,0.007,0.554,0.561c0.001,2.243-0.001,4.486,0.001,6.73
					c0.001,0.811,0.249,1.059,1.06,1.059c1.91,0.001,3.821,0,5.731,0.001c0.458,0,0.479,0.021,0.481,0.483
					c0.003,0.887,0.002,1.775,0,2.662c-0.001,0.477-0.024,0.498-0.504,0.499c-3.895,0.001-7.79,0-11.684,0
					c-3.882,0-7.765,0-11.647,0c-0.55,0-0.552-0.001-0.552-0.561c-0.001-3.624-0.001-7.247,0-10.871
					C195.018,417.166,195.022,417.162,195.568,417.162z M218.854,451.579c-3.883,0.001-7.766,0-11.65,0c-3.871,0-7.742,0-11.613,0
					c-0.572,0-0.574-0.002-0.574-0.579c-0.001-1.997-0.001-3.994,0.001-5.991c0-0.464,0.023-0.486,0.478-0.487
					c7.803-0.001,15.607-0.001,23.41,0c0.478,0,0.499,0.02,0.499,0.503c0.002,1.997,0.001,3.994,0,5.991
					C219.406,451.574,219.401,451.579,218.854,451.579z"/>
			</g>
			<g>
				<path style="fill:#FFFFFF;" d="M205.111,432.771h1.699l2.967,7.897h-1.644l-0.651-1.886h-3.044l-0.651,1.886h-1.643
					L205.111,432.771z M206.997,437.415l-0.706-1.974l-0.287-0.96h-0.088l-0.287,0.96l-0.706,1.974H206.997z"/>
				<path style="fill:#FFFFFF;" d="M211.331,434.536c-0.125,0-0.245-0.024-0.359-0.072c-0.114-0.048-0.213-0.114-0.298-0.199
					c-0.084-0.084-0.151-0.182-0.198-0.292c-0.048-0.11-0.072-0.232-0.072-0.364s0.024-0.254,0.072-0.364
					c0.048-0.11,0.114-0.208,0.198-0.292c0.084-0.084,0.184-0.151,0.298-0.198c0.114-0.048,0.233-0.072,0.359-0.072
					c0.257,0,0.478,0.09,0.662,0.27c0.184,0.181,0.276,0.399,0.276,0.656s-0.092,0.476-0.276,0.656
					C211.809,434.446,211.589,434.536,211.331,434.536z M210.615,440.669v-5.404h1.445v5.404H210.615z"/>
			</g>
			<g>
				<path style="fill:#FFFFFF;" d="M261.044,431.299c-0.006-1.224-0.959-2.121-2.189-2.14c-0.924-0.014-0.832,0.12-0.834-0.867
					c-0.003-1.097-0.007-2.194,0.003-3.292c0.003-0.379-0.112-0.691-0.362-0.976c-2.342-2.668-4.678-5.342-7.019-8.011
					c-0.12-0.137-0.275-0.244-0.414-0.366c-6.214,0-12.427,0-18.641,0c-0.794,0.293-1.14,0.868-1.138,1.709
					c0.01,3.748,0.004,7.496,0.004,11.243c0,0.556-0.003,0.589-0.55,0.551c-1.497-0.102-2.516,0.986-2.497,2.492
					c0.044,3.476,0.013,6.953,0.014,10.429c0.001,1.58,0.867,2.443,2.45,2.449c0.582,0.002,0.582,0.002,0.582,0.6
					c0,2.219-0.001,4.438,0.001,6.657c0.001,1.192,0.58,1.771,1.768,1.771c8.013,0.001,16.027,0.001,24.04,0
					c1.168,0,1.755-0.583,1.757-1.745c0.002-2.256,0-4.512,0.001-6.768c0-0.512,0.002-0.511,0.52-0.515
					c0.271-0.002,0.541,0.008,0.809-0.058c0.996-0.246,1.69-1.044,1.694-2.069C261.059,438.696,261.061,434.997,261.044,431.299z
					 M232.593,417.162c5.337,0,10.674,0,16.01,0c0.548,0,0.554,0.007,0.554,0.561c0.001,2.243-0.001,4.486,0.001,6.73
					c0.001,0.811,0.249,1.059,1.06,1.059c1.91,0.001,3.821,0,5.731,0.001c0.458,0,0.479,0.021,0.481,0.483
					c0.003,0.887,0.002,1.775,0,2.662c-0.001,0.477-0.024,0.498-0.504,0.499c-3.895,0.001-7.79,0-11.684,0
					c-3.882,0-7.765,0-11.647,0c-0.55,0-0.552-0.001-0.552-0.561c-0.001-3.624-0.001-7.247,0-10.871
					C232.042,417.166,232.047,417.162,232.593,417.162z M255.878,451.579c-3.883,0.001-7.766,0-11.65,0c-3.871,0-7.742,0-11.613,0
					c-0.572,0-0.574-0.002-0.574-0.579c-0.001-1.997-0.001-3.994,0.001-5.991c0-0.464,0.023-0.486,0.478-0.487
					c7.803-0.001,15.607-0.001,23.41,0c0.478,0,0.499,0.02,0.499,0.503c0.002,1.997,0.001,3.994,0,5.991
					C256.431,451.574,256.426,451.579,255.878,451.579z"/>
			</g>
			<g>
				<path style="fill:#FFFFFF;" d="M236.361,440.845c-0.338,0-0.662-0.048-0.971-0.143c-0.309-0.095-0.592-0.239-0.849-0.43
					c-0.257-0.191-0.481-0.425-0.673-0.7c-0.191-0.276-0.342-0.597-0.452-0.965l1.401-0.551c0.103,0.397,0.283,0.726,0.54,0.987
					c0.257,0.261,0.596,0.392,1.015,0.392c0.154,0,0.303-0.02,0.447-0.061c0.143-0.04,0.272-0.099,0.386-0.176
					s0.204-0.175,0.27-0.292c0.066-0.118,0.099-0.254,0.099-0.408c0-0.147-0.026-0.279-0.077-0.397
					c-0.051-0.117-0.138-0.227-0.259-0.331c-0.121-0.103-0.28-0.202-0.475-0.298c-0.195-0.095-0.435-0.195-0.722-0.298l-0.485-0.176
					c-0.213-0.073-0.429-0.173-0.645-0.298c-0.217-0.125-0.413-0.276-0.59-0.452c-0.177-0.176-0.322-0.384-0.436-0.623
					c-0.114-0.239-0.171-0.509-0.171-0.81c0-0.309,0.06-0.597,0.182-0.866c0.121-0.268,0.294-0.503,0.518-0.706
					c0.224-0.202,0.492-0.36,0.805-0.474s0.66-0.171,1.042-0.171c0.397,0,0.74,0.053,1.031,0.16
					c0.291,0.107,0.537,0.243,0.739,0.408c0.202,0.165,0.366,0.348,0.491,0.546c0.125,0.199,0.217,0.386,0.276,0.563l-1.312,0.551
					c-0.074-0.221-0.208-0.419-0.402-0.596c-0.195-0.176-0.462-0.265-0.8-0.265c-0.324,0-0.592,0.075-0.805,0.226
					c-0.213,0.151-0.32,0.348-0.32,0.59c0,0.235,0.103,0.436,0.309,0.601c0.206,0.165,0.533,0.325,0.982,0.48l0.497,0.165
					c0.316,0.111,0.605,0.237,0.866,0.381c0.261,0.143,0.485,0.314,0.673,0.513c0.187,0.199,0.331,0.425,0.43,0.678
					c0.1,0.254,0.149,0.546,0.149,0.877c0,0.412-0.083,0.767-0.248,1.064c-0.165,0.298-0.377,0.542-0.634,0.734
					c-0.258,0.191-0.548,0.335-0.872,0.43C236.986,440.797,236.67,440.845,236.361,440.845z"/>
				<path style="fill:#FFFFFF;" d="M239.516,432.771h1.61l1.633,4.754l0.287,1.015h0.088l0.309-1.015l1.699-4.754h1.61l-2.879,7.897
					h-1.566L239.516,432.771z"/>
				<path style="fill:#FFFFFF;" d="M251.097,436.334h3.871c0.022,0.089,0.04,0.195,0.055,0.32c0.015,0.125,0.023,0.25,0.023,0.375
					c0,0.507-0.078,0.985-0.232,1.434c-0.154,0.449-0.397,0.849-0.728,1.202c-0.353,0.375-0.775,0.666-1.268,0.871
					c-0.493,0.206-1.055,0.309-1.688,0.309c-0.574,0-1.114-0.103-1.621-0.309c-0.507-0.206-0.949-0.492-1.324-0.86
					c-0.375-0.367-0.673-0.803-0.894-1.307c-0.22-0.504-0.331-1.053-0.331-1.649c0-0.595,0.11-1.145,0.331-1.649
					c0.221-0.504,0.518-0.939,0.894-1.307c0.375-0.367,0.816-0.654,1.324-0.86c0.507-0.206,1.047-0.309,1.621-0.309
					c0.64,0,1.211,0.11,1.715,0.331c0.504,0.221,0.936,0.526,1.296,0.915l-1.026,1.004c-0.257-0.272-0.544-0.48-0.861-0.623
					c-0.316-0.143-0.694-0.215-1.136-0.215c-0.36,0-0.702,0.065-1.026,0.193c-0.323,0.129-0.607,0.311-0.849,0.546
					c-0.243,0.235-0.436,0.52-0.579,0.855c-0.143,0.335-0.215,0.708-0.215,1.119c0,0.412,0.072,0.785,0.215,1.12
					c0.143,0.335,0.338,0.62,0.585,0.855c0.246,0.235,0.531,0.418,0.854,0.546c0.324,0.129,0.669,0.193,1.037,0.193
					c0.419,0,0.774-0.061,1.064-0.182c0.29-0.121,0.539-0.278,0.745-0.469c0.147-0.132,0.274-0.3,0.38-0.502
					c0.107-0.202,0.189-0.428,0.248-0.678h-2.482V436.334z"/>
			</g>
			<g>
				<path style="fill:#FFFFFF;" d="M297.3,431.299c-0.006-1.224-0.959-2.121-2.189-2.14c-0.924-0.014-0.832,0.12-0.834-0.867
					c-0.003-1.097-0.007-2.194,0.003-3.292c0.003-0.379-0.112-0.691-0.362-0.976c-2.342-2.668-4.678-5.342-7.019-8.011
					c-0.12-0.137-0.275-0.244-0.414-0.366c-6.214,0-12.427,0-18.641,0c-0.794,0.293-1.14,0.868-1.138,1.709
					c0.01,3.748,0.004,7.496,0.004,11.243c0,0.556-0.003,0.589-0.55,0.551c-1.497-0.102-2.516,0.986-2.497,2.492
					c0.044,3.476,0.013,6.953,0.014,10.429c0.001,1.58,0.867,2.443,2.45,2.449c0.582,0.002,0.582,0.002,0.582,0.6
					c0,2.219-0.001,4.438,0.001,6.657c0.001,1.192,0.58,1.771,1.768,1.771c8.013,0.001,16.027,0.001,24.04,0
					c1.168,0,1.755-0.583,1.757-1.745c0.002-2.256,0-4.512,0.001-6.768c0-0.512,0.002-0.511,0.52-0.515
					c0.271-0.002,0.541,0.008,0.809-0.058c0.996-0.246,1.69-1.044,1.694-2.069C297.315,438.696,297.318,434.997,297.3,431.299z
					 M268.85,417.162c5.337,0,10.674,0,16.01,0c0.548,0,0.554,0.007,0.554,0.561c0.001,2.243-0.001,4.486,0.001,6.73
					c0.001,0.811,0.249,1.059,1.06,1.059c1.91,0.001,3.821,0,5.731,0.001c0.458,0,0.479,0.021,0.481,0.483
					c0.003,0.887,0.002,1.775,0,2.662c-0.001,0.477-0.024,0.498-0.504,0.499c-3.895,0.001-7.79,0-11.684,0
					c-3.882,0-7.765,0-11.647,0c-0.55,0-0.552-0.001-0.552-0.561c-0.001-3.624-0.001-7.247,0-10.871
					C268.299,417.166,268.303,417.162,268.85,417.162z M292.135,451.579c-3.883,0.001-7.766,0-11.65,0c-3.871,0-7.742,0-11.613,0
					c-0.572,0-0.574-0.002-0.574-0.579c-0.001-1.997-0.001-3.994,0.001-5.991c0-0.464,0.023-0.486,0.478-0.487
					c7.803-0.001,15.607-0.001,23.41,0c0.478,0,0.499,0.02,0.499,0.503c0.001,1.997,0.001,3.994,0,5.991
					C292.687,451.574,292.682,451.579,292.135,451.579z"/>
			</g>
			<g>
				<path style="fill:#FFFFFF;" d="M272.966,434.183v1.831h3.165v1.412h-3.165v1.831h3.518v1.412h-5.007v-7.897h5.007v1.412H272.966
					z"/>
				<path style="fill:#FFFFFF;" d="M277.852,440.669v-7.897h2.779c0.375,0,0.726,0.061,1.053,0.182
					c0.327,0.121,0.612,0.292,0.855,0.513c0.243,0.221,0.434,0.483,0.574,0.789c0.14,0.305,0.209,0.642,0.209,1.009
					c0,0.375-0.07,0.715-0.209,1.02c-0.14,0.305-0.331,0.568-0.574,0.789c-0.243,0.221-0.528,0.392-0.855,0.513
					c-0.327,0.121-0.678,0.182-1.053,0.182h-1.29v2.901H277.852z M280.653,436.356c0.389,0,0.684-0.111,0.882-0.331
					c0.199-0.22,0.298-0.474,0.298-0.761c0-0.14-0.024-0.276-0.072-0.408c-0.048-0.132-0.121-0.248-0.221-0.347
					c-0.099-0.099-0.222-0.178-0.37-0.237c-0.147-0.059-0.32-0.089-0.518-0.089h-1.312v2.173H280.653z"/>
				<path style="fill:#FFFFFF;" d="M286.797,440.845c-0.338,0-0.662-0.048-0.971-0.143c-0.309-0.095-0.592-0.239-0.849-0.43
					c-0.257-0.191-0.482-0.425-0.673-0.7c-0.191-0.276-0.342-0.597-0.452-0.965l1.401-0.551c0.103,0.397,0.283,0.726,0.541,0.987
					c0.257,0.261,0.595,0.392,1.015,0.392c0.154,0,0.303-0.02,0.447-0.061c0.143-0.04,0.272-0.099,0.386-0.176
					c0.114-0.077,0.204-0.175,0.27-0.292c0.066-0.118,0.1-0.254,0.1-0.408c0-0.147-0.026-0.279-0.077-0.397
					c-0.051-0.117-0.138-0.227-0.259-0.331c-0.121-0.103-0.279-0.202-0.474-0.298c-0.195-0.095-0.436-0.195-0.723-0.298
					l-0.485-0.176c-0.213-0.073-0.428-0.173-0.645-0.298c-0.217-0.125-0.414-0.276-0.59-0.452c-0.176-0.176-0.322-0.384-0.436-0.623
					c-0.114-0.239-0.171-0.509-0.171-0.81c0-0.309,0.061-0.597,0.182-0.866c0.121-0.268,0.294-0.503,0.518-0.706
					c0.224-0.202,0.493-0.36,0.805-0.474c0.312-0.114,0.66-0.171,1.042-0.171c0.397,0,0.741,0.053,1.031,0.16
					c0.29,0.107,0.537,0.243,0.739,0.408c0.202,0.165,0.365,0.348,0.491,0.546c0.125,0.199,0.217,0.386,0.276,0.563l-1.312,0.551
					c-0.074-0.221-0.208-0.419-0.403-0.596c-0.195-0.176-0.462-0.265-0.799-0.265c-0.324,0-0.592,0.075-0.805,0.226
					c-0.213,0.151-0.32,0.348-0.32,0.59c0,0.235,0.103,0.436,0.309,0.601c0.206,0.165,0.533,0.325,0.982,0.48l0.496,0.165
					c0.316,0.111,0.605,0.237,0.866,0.381c0.261,0.143,0.485,0.314,0.673,0.513c0.187,0.199,0.331,0.425,0.43,0.678
					c0.099,0.254,0.149,0.546,0.149,0.877c0,0.412-0.083,0.767-0.248,1.064c-0.165,0.298-0.377,0.542-0.634,0.734
					c-0.258,0.191-0.548,0.335-0.872,0.43C287.422,440.797,287.105,440.845,286.797,440.845z"/>
			</g>
			<g>
				<path style="fill:#FFFFFF;" d="M321.394,439.168l4.004-4.985h-3.827v-1.412h5.559v1.5l-3.96,4.985h4.004v1.412h-5.779V439.168z"
					/>
				<path style="fill:#FFFFFF;" d="M328.409,432.771h1.489v7.897h-1.489V432.771z"/>
				<path style="fill:#FFFFFF;" d="M331.486,440.669v-7.897h2.779c0.375,0,0.726,0.061,1.053,0.182
					c0.327,0.121,0.612,0.292,0.855,0.513s0.434,0.483,0.574,0.789c0.14,0.305,0.209,0.642,0.209,1.009
					c0,0.375-0.07,0.715-0.209,1.02c-0.14,0.305-0.331,0.568-0.574,0.789c-0.243,0.221-0.528,0.392-0.855,0.513
					c-0.327,0.121-0.678,0.182-1.053,0.182h-1.29v2.901H331.486z M334.288,436.356c0.389,0,0.684-0.111,0.882-0.331
					c0.199-0.22,0.298-0.474,0.298-0.761c0-0.14-0.024-0.276-0.072-0.408c-0.048-0.132-0.121-0.248-0.221-0.347
					c-0.099-0.099-0.222-0.178-0.37-0.237c-0.147-0.059-0.32-0.089-0.518-0.089h-1.312v2.173H334.288z"/>
			</g>
		</g>
		<g style="opacity:0.61;">
			<path style="fill:#FFFFFF;" d="M300.133,433.27h9.067v2.242h-9.067V433.27z M300.133,437.136h9.067v2.243h-9.067V437.136z"/>
		</g>
	</g>
	<g style="opacity:0.61;">
		<path style="fill:#FFFFFF;" d="M156.756,478.878h1.607c1.263,0,2.114,0.812,2.114,1.974c0,1.161-0.851,1.973-2.114,1.973h-1.607
			V478.878z M158.34,482.464c1.049,0,1.725-0.665,1.725-1.612c0-0.947-0.677-1.613-1.725-1.613h-1.167v3.225H158.34z"/>
		<path style="fill:#FFFFFF;" d="M165.139,480.851c0-1.15,0.879-2.007,2.075-2.007c1.184,0,2.069,0.851,2.069,2.007
			c0,1.156-0.885,2.007-2.069,2.007C166.019,482.858,165.139,482.002,165.139,480.851z M168.866,480.851
			c0-0.942-0.705-1.635-1.652-1.635c-0.953,0-1.663,0.693-1.663,1.635c0,0.941,0.71,1.635,1.663,1.635
			C168.162,482.486,168.866,481.793,168.866,480.851z"/>
		<path style="fill:#FFFFFF;" d="M179.596,478.878l-1.331,3.947h-0.44l-1.156-3.366l-1.161,3.366h-0.434l-1.331-3.947h0.429
			l1.139,3.394l1.178-3.394h0.389l1.161,3.411l1.156-3.411H179.596z"/>
		<path style="fill:#FFFFFF;" d="M187.731,478.878v3.947h-0.344l-2.537-3.202v3.202h-0.417v-3.947h0.344l2.543,3.203v-3.203H187.731
			z"/>
		<path style="fill:#FFFFFF;" d="M193.093,478.878h0.417v3.586h2.21v0.361h-2.627V478.878z"/>
		<path style="fill:#FFFFFF;" d="M200.061,480.851c0-1.15,0.879-2.007,2.075-2.007c1.184,0,2.069,0.851,2.069,2.007
			c0,1.156-0.885,2.007-2.069,2.007C200.941,482.858,200.061,482.002,200.061,480.851z M203.788,480.851
			c0-0.942-0.705-1.635-1.652-1.635c-0.953,0-1.663,0.693-1.663,1.635c0,0.941,0.71,1.635,1.663,1.635
			C203.083,482.486,203.788,481.793,203.788,480.851z"/>
		<path style="fill:#FFFFFF;" d="M211.636,481.77h-2.199l-0.474,1.054h-0.434l1.804-3.947h0.412l1.804,3.947h-0.44L211.636,481.77z
			 M211.484,481.432l-0.947-2.12l-0.947,2.12H211.484z"/>
		<path style="fill:#FFFFFF;" d="M217.28,478.878h1.607c1.263,0,2.114,0.812,2.114,1.974c0,1.161-0.851,1.973-2.114,1.973h-1.607
			V478.878z M218.864,482.464c1.049,0,1.725-0.665,1.725-1.612c0-0.947-0.677-1.613-1.725-1.613h-1.167v3.225H218.864z"/>
		<path style="fill:#FFFFFF;" d="M234.041,481.77h-2.199l-0.474,1.054h-0.434l1.804-3.947h0.412l1.804,3.947h-0.44L234.041,481.77z
			 M233.889,481.432l-0.947-2.12l-0.947,2.12H233.889z"/>
		<path style="fill:#FFFFFF;" d="M239.685,478.878h0.417v3.586h2.21v0.361h-2.627V478.878z"/>
		<path style="fill:#FFFFFF;" d="M247.082,478.878h0.417v3.586h2.21v0.361h-2.627V478.878z"/>
		<path style="fill:#FFFFFF;" d="M260.449,479.239v1.551h2.041v0.361h-2.041v1.675h-0.417v-3.947h2.706v0.361H260.449z"/>
		<path style="fill:#FFFFFF;" d="M267.678,478.878h0.417v3.947h-0.417V478.878z"/>
		<path style="fill:#FFFFFF;" d="M273.456,478.878h0.417v3.586h2.21v0.361h-2.627V478.878z"/>
		<path style="fill:#FFFFFF;" d="M283.644,482.464v0.361h-2.791v-3.947h2.706v0.361h-2.289v1.404h2.041v0.355h-2.041v1.466H283.644z
			"/>
		<path style="fill:#FFFFFF;" d="M294.672,479.239v1.551h2.041v0.361h-2.041v1.675h-0.417v-3.947h2.706v0.361H294.672z"/>
		<path style="fill:#FFFFFF;" d="M301.5,480.851c0-1.15,0.879-2.007,2.075-2.007c1.184,0,2.069,0.851,2.069,2.007
			c0,1.156-0.885,2.007-2.069,2.007C302.379,482.858,301.5,482.002,301.5,480.851z M305.226,480.851
			c0-0.942-0.705-1.635-1.652-1.635c-0.953,0-1.663,0.693-1.663,1.635c0,0.941,0.71,1.635,1.663,1.635
			C304.522,482.486,305.226,481.793,305.226,480.851z"/>
		<path style="fill:#FFFFFF;" d="M313.351,482.825l-0.902-1.269c-0.102,0.011-0.203,0.017-0.316,0.017h-1.06v1.252h-0.417v-3.947
			h1.477c1.004,0,1.613,0.507,1.613,1.353c0,0.62-0.327,1.054-0.902,1.24l0.964,1.353H313.351z M313.328,480.231
			c0-0.632-0.417-0.992-1.207-0.992h-1.048v1.979h1.048C312.911,481.218,313.328,480.851,313.328,480.231z"/>
		<path style="fill:#FFFFFF;" d="M322.907,478.878v3.947h-0.4v-3.158l-1.551,2.656h-0.197l-1.551-2.639v3.14h-0.4v-3.947h0.344
			l1.714,2.926l1.697-2.926H322.907z"/>
		<path style="fill:#FFFFFF;" d="M330.744,481.77h-2.199l-0.473,1.054h-0.434l1.804-3.947h0.411l1.804,3.947h-0.44L330.744,481.77z
			 M330.592,481.432l-0.947-2.12l-0.947,2.12H330.592z"/>
		<path style="fill:#FFFFFF;" d="M336.957,479.239h-1.387v-0.361h3.192v0.361h-1.387v3.586h-0.417V479.239z"/>
		<path style="fill:#FFFFFF;" d="M343.063,482.346l0.164-0.321c0.282,0.276,0.784,0.479,1.302,0.479c0.739,0,1.06-0.31,1.06-0.699
			c0-1.083-2.43-0.417-2.43-1.877c0-0.581,0.451-1.083,1.455-1.083c0.446,0,0.908,0.13,1.224,0.35l-0.141,0.333
			c-0.338-0.22-0.733-0.327-1.083-0.327c-0.722,0-1.043,0.321-1.043,0.716c0,1.083,2.43,0.429,2.43,1.866
			c0,0.581-0.462,1.077-1.472,1.077C343.937,482.858,343.356,482.65,343.063,482.346z"/>
	</g>
</g>
<g>
</g>
<g>
	<g>
		<path style="fill:#FFFFFF;" d="M420.179,28.639c-14.849,0.755-29.567,15.455-13.376,39.675l-60.457,58.965l22.426,27.15
			l60.155-61.762c39.676,22.559,54.904-39.562,11.846-38.485C443.418,35.894,431.761,28.053,420.179,28.639 M78.764,32.663
			c-10.675,0.567-20.499,8.577-17.948,25.6c-43.057-1.076-27.811,61.043,11.789,38.486l60.174,61.761l22.426-27.15L94.634,72.339
			C111.732,46.682,94.369,31.719,78.764,32.663 M131.192,342.509l-60.118,61.553c-39.676-22.558-54.904,39.676-11.846,38.542
			c-6.273,41.923,62.668,28.963,33.875-14.17l60.458-58.984L131.192,342.509z M368.677,345.626l-22.426,27.112l60.457,58.966
			c-28.698,43.057,40.167,55.961,33.97,14.037c43.057,1.077,27.754-61.1-11.845-38.542L368.677,345.626z"/>
	</g>
	<g>
		<path d="M421.341,475c-7.535,0.001-15.102-3.157-19.951-8.866c-3.54-4.168-10.265-15.575,0.706-33.889l-60.744-59.246
			l27.101-32.766l61.07,62.507c11.982-5.965,23.394-5.393,31.626,1.686c8.101,6.968,11.206,19.232,7.381,29.161
			c-3.588,9.314-12.182,14.897-23.886,15.679c0.505,11.079-4.083,19.543-12.925,23.55C428.462,474.294,424.904,475,421.341,475z
			 M351.152,372.475l60.221,58.737l-1.662,2.493c-7.485,11.229-8.486,21.087-2.821,27.757c5.049,5.945,14.646,8.046,21.85,4.782
			c6.842-3.1,9.814-10.194,8.368-19.976l-0.627-4.242l4.286,0.107c10.707,0.252,18.158-3.689,21.027-11.139
			c2.765-7.179,0.514-16.05-5.352-21.096c-6.44-5.539-15.611-5.383-25.824,0.435l-2.42,1.379L368.9,351.018L351.152,372.475z
			 M78.492,471.838c-3.564,0-7.12-0.708-10.377-2.188c-8.816-4.005-13.379-12.456-12.86-23.514
			c-11.699-0.77-20.294-6.342-23.892-15.651c-3.837-9.927-0.746-22.196,7.35-29.173c8.232-7.095,19.661-7.674,31.668-1.705
			l61.027-62.484l27.055,32.585l-60.747,59.267c11.025,18.369,4.28,29.81,0.729,33.99C93.591,468.677,86.024,471.838,78.492,471.838
			z M63.433,438.884l-0.637,4.254c-1.461,9.763,1.488,16.845,8.303,19.941c7.193,3.267,16.788,1.164,21.846-4.789
			c5.688-6.693,4.677-16.585-2.844-27.853l-1.664-2.493l60.219-58.751l-17.683-21.297l-59.264,60.679l-2.42-1.376
			c-10.239-5.822-19.425-5.972-25.866-0.42c-5.862,5.052-8.104,13.928-5.33,21.104c2.879,7.448,10.36,11.397,21.038,11.114
			L63.433,438.884z M133,163.908l-61.09-62.701c-11.982,5.965-23.388,5.398-31.611-1.675c-8.083-6.952-11.178-19.194-7.36-29.108
			c3.589-9.318,12.19-14.905,23.901-15.688c-0.416-8.754,2.447-14.361,5.127-17.645c3.931-4.816,9.823-7.668,16.591-8.031
			c9.886-0.596,19.211,4.138,23.763,12.057c2.863,4.98,6.072,15.398-3.075,30.677l60.857,59.3L133,163.908z M73.242,92.232
			l59.315,60.879l17.749-21.487L89.969,72.831l1.662-2.494c6.635-9.956,8.209-19.055,4.434-25.623
			c-3.151-5.481-10.02-8.876-17.084-8.449l-0.027,0.001c-4.717,0.251-8.764,2.164-11.396,5.388
			c-3.086,3.782-4.184,9.34-3.175,16.073l0.637,4.249l-4.296-0.107c-10.685-0.264-18.178,3.692-21.05,11.148
			c-2.759,7.163-0.517,16.012,5.331,21.042c6.43,5.53,15.597,5.371,25.812-0.448L73.242,92.232z M368.55,159.827l-27.103-32.812
			l60.741-59.242c-8.708-14.524-6.108-24.649-3.659-29.527c3.852-7.671,12.077-12.734,21.466-13.211h0.001
			c7.43-0.375,14.296,2.262,18.829,7.237c3.031,3.327,6.299,9.108,5.903,18.382c11.719,0.778,20.326,6.364,23.919,15.684
			c3.818,9.905,0.728,22.142-7.349,29.096c-8.232,7.088-19.663,7.662-31.677,1.69L368.55,159.827z M351.244,127.542l17.749,21.488
			l59.294-60.878l2.424,1.378c10.249,5.827,19.44,5.98,25.88,0.435c5.843-5.031,8.082-13.876,5.323-21.032
			c-2.873-7.454-10.355-11.413-21.05-11.144l-4.273,0.107l0.612-4.231c1.017-7.034-0.266-12.752-3.711-16.534
			c-3.074-3.374-7.864-5.158-13.129-4.889c-6.696,0.341-12.734,3.969-15.382,9.242c-3.303,6.578-1.635,15.162,4.824,24.824
			l1.668,2.494L351.244,127.542z"/>
	</g>
	<g>
		<defs>
			<path id="SVGID_1_" d="M249.424,75.475C151.78,75.485,72.632,154.65,72.642,252.295c0.01,97.644,79.175,176.792,176.82,176.782
				c97.63-0.01,176.771-79.153,176.782-176.782c-0.031-97.645-79.175-176.797-176.82-176.839V75.475z"/>
		</defs>
		<clipPath id="SVGID_00000111184410631642776510000006044500732642833324_">
			<use xlink:href="#SVGID_1_"  style="overflow:visible;"/>
		</clipPath>
		<g style="clip-path:url(#SVGID_00000111184410631642776510000006044500732642833324_);">
			<g>
				<defs>
					
						<rect id="SVGID_00000115482651056944848910000006192070073511969459_" x="72.632" y="75.456" width="353.613" height="353.631"/>
				</defs>
				<clipPath id="SVGID_00000114052752345444777490000009298306416574481024_">
					<use xlink:href="#SVGID_00000115482651056944848910000006192070073511969459_"  style="overflow:visible;"/>
				</clipPath>
				
					<rect x="72.632" y="75.456" style="clip-path:url(#SVGID_00000114052752345444777490000009298306416574481024_);fill:#4ABFFF;" width="353.613" height="28.462"/>
				
					<rect x="72.632" y="103.918" style="clip-path:url(#SVGID_00000114052752345444777490000009298306416574481024_);fill:#4ABFFF;" width="353.613" height="2.03"/>
				
					<rect x="72.632" y="105.948" style="clip-path:url(#SVGID_00000114052752345444777490000009298306416574481024_);fill:#4ABEFF;" width="353.613" height="2.03"/>
				
					<rect x="72.632" y="107.978" style="clip-path:url(#SVGID_00000114052752345444777490000009298306416574481024_);fill:#49BDFE;" width="353.613" height="2.03"/>
				
					<rect x="72.632" y="110.009" style="clip-path:url(#SVGID_00000114052752345444777490000009298306416574481024_);fill:#49BCFE;" width="353.613" height="2.03"/>
				
					<rect x="72.632" y="112.039" style="clip-path:url(#SVGID_00000114052752345444777490000009298306416574481024_);fill:#48BBFE;" width="353.613" height="2.03"/>
				
					<rect x="72.632" y="114.069" style="clip-path:url(#SVGID_00000114052752345444777490000009298306416574481024_);fill:#48BAFE;" width="353.613" height="2.03"/>
				
					<rect x="72.632" y="116.099" style="clip-path:url(#SVGID_00000114052752345444777490000009298306416574481024_);fill:#48B9FD;" width="353.613" height="2.03"/>
				
					<rect x="72.632" y="118.13" style="clip-path:url(#SVGID_00000114052752345444777490000009298306416574481024_);fill:#47B8FD;" width="353.613" height="2.03"/>
				
					<rect x="72.632" y="120.16" style="clip-path:url(#SVGID_00000114052752345444777490000009298306416574481024_);fill:#47B7FD;" width="353.613" height="2.03"/>
				
					<rect x="72.632" y="122.19" style="clip-path:url(#SVGID_00000114052752345444777490000009298306416574481024_);fill:#46B6FD;" width="353.613" height="2.03"/>
				
					<rect x="72.632" y="124.221" style="clip-path:url(#SVGID_00000114052752345444777490000009298306416574481024_);fill:#46B5FC;" width="353.613" height="2.03"/>
				
					<rect x="72.632" y="126.251" style="clip-path:url(#SVGID_00000114052752345444777490000009298306416574481024_);fill:#46B4FC;" width="353.613" height="2.03"/>
				
					<rect x="72.632" y="128.281" style="clip-path:url(#SVGID_00000114052752345444777490000009298306416574481024_);fill:#45B3FC;" width="353.613" height="2.03"/>
				
					<rect x="72.632" y="130.312" style="clip-path:url(#SVGID_00000114052752345444777490000009298306416574481024_);fill:#45B2FB;" width="353.613" height="2.03"/>
				
					<rect x="72.632" y="132.342" style="clip-path:url(#SVGID_00000114052752345444777490000009298306416574481024_);fill:#45B1FB;" width="353.613" height="2.03"/>
				
					<rect x="72.632" y="134.372" style="clip-path:url(#SVGID_00000114052752345444777490000009298306416574481024_);fill:#44B0FB;" width="353.613" height="2.03"/>
				
					<rect x="72.632" y="136.402" style="clip-path:url(#SVGID_00000114052752345444777490000009298306416574481024_);fill:#44AFFB;" width="353.613" height="2.03"/>
				
					<rect x="72.632" y="138.433" style="clip-path:url(#SVGID_00000114052752345444777490000009298306416574481024_);fill:#43AEFA;" width="353.613" height="2.03"/>
				
					<rect x="72.632" y="140.463" style="clip-path:url(#SVGID_00000114052752345444777490000009298306416574481024_);fill:#43ADFA;" width="353.613" height="2.03"/>
				
					<rect x="72.632" y="142.493" style="clip-path:url(#SVGID_00000114052752345444777490000009298306416574481024_);fill:#43ACFA;" width="353.613" height="2.03"/>
				
					<rect x="72.632" y="144.524" style="clip-path:url(#SVGID_00000114052752345444777490000009298306416574481024_);fill:#42ABFA;" width="353.613" height="2.03"/>
				
					<rect x="72.632" y="146.554" style="clip-path:url(#SVGID_00000114052752345444777490000009298306416574481024_);fill:#42AAF9;" width="353.613" height="2.03"/>
				
					<rect x="72.632" y="148.584" style="clip-path:url(#SVGID_00000114052752345444777490000009298306416574481024_);fill:#41A9F9;" width="353.613" height="2.03"/>
				
					<rect x="72.632" y="150.615" style="clip-path:url(#SVGID_00000114052752345444777490000009298306416574481024_);fill:#41A8F9;" width="353.613" height="2.03"/>
				
					<rect x="72.632" y="152.645" style="clip-path:url(#SVGID_00000114052752345444777490000009298306416574481024_);fill:#41A7F8;" width="353.613" height="2.03"/>
				
					<rect x="72.632" y="154.675" style="clip-path:url(#SVGID_00000114052752345444777490000009298306416574481024_);fill:#40A6F8;" width="353.613" height="2.03"/>
				
					<rect x="72.632" y="156.705" style="clip-path:url(#SVGID_00000114052752345444777490000009298306416574481024_);fill:#40A5F8;" width="353.613" height="2.03"/>
				
					<rect x="72.632" y="158.736" style="clip-path:url(#SVGID_00000114052752345444777490000009298306416574481024_);fill:#3FA4F8;" width="353.613" height="2.03"/>
				
					<rect x="72.632" y="160.766" style="clip-path:url(#SVGID_00000114052752345444777490000009298306416574481024_);fill:#3FA3F7;" width="353.613" height="2.03"/>
				
					<rect x="72.632" y="162.796" style="clip-path:url(#SVGID_00000114052752345444777490000009298306416574481024_);fill:#3FA2F7;" width="353.613" height="2.03"/>
				
					<rect x="72.632" y="164.827" style="clip-path:url(#SVGID_00000114052752345444777490000009298306416574481024_);fill:#3EA1F7;" width="353.613" height="2.03"/>
				
					<rect x="72.632" y="166.857" style="clip-path:url(#SVGID_00000114052752345444777490000009298306416574481024_);fill:#3EA0F7;" width="353.613" height="2.03"/>
				
					<rect x="72.632" y="168.887" style="clip-path:url(#SVGID_00000114052752345444777490000009298306416574481024_);fill:#3E9FF6;" width="353.613" height="2.03"/>
				
					<rect x="72.632" y="170.918" style="clip-path:url(#SVGID_00000114052752345444777490000009298306416574481024_);fill:#3D9EF6;" width="353.613" height="2.03"/>
				
					<rect x="72.632" y="172.948" style="clip-path:url(#SVGID_00000114052752345444777490000009298306416574481024_);fill:#3D9DF6;" width="353.613" height="2.03"/>
				
					<rect x="72.632" y="174.978" style="clip-path:url(#SVGID_00000114052752345444777490000009298306416574481024_);fill:#3C9CF5;" width="353.613" height="2.03"/>
				
					<rect x="72.632" y="177.009" style="clip-path:url(#SVGID_00000114052752345444777490000009298306416574481024_);fill:#3C9BF5;" width="353.613" height="2.03"/>
				
					<rect x="72.632" y="179.039" style="clip-path:url(#SVGID_00000114052752345444777490000009298306416574481024_);fill:#3C9AF5;" width="353.613" height="2.03"/>
				
					<rect x="72.632" y="181.069" style="clip-path:url(#SVGID_00000114052752345444777490000009298306416574481024_);fill:#3B99F5;" width="353.613" height="2.03"/>
				
					<rect x="72.632" y="183.099" style="clip-path:url(#SVGID_00000114052752345444777490000009298306416574481024_);fill:#3B98F4;" width="353.613" height="2.03"/>
				
					<rect x="72.632" y="185.13" style="clip-path:url(#SVGID_00000114052752345444777490000009298306416574481024_);fill:#3A97F4;" width="353.613" height="2.03"/>
				
					<rect x="72.632" y="187.16" style="clip-path:url(#SVGID_00000114052752345444777490000009298306416574481024_);fill:#3A96F4;" width="353.613" height="2.03"/>
				
					<rect x="72.632" y="189.19" style="clip-path:url(#SVGID_00000114052752345444777490000009298306416574481024_);fill:#3A95F3;" width="353.613" height="2.03"/>
				
					<rect x="72.632" y="191.221" style="clip-path:url(#SVGID_00000114052752345444777490000009298306416574481024_);fill:#3994F3;" width="353.613" height="2.03"/>
				
					<rect x="72.632" y="193.251" style="clip-path:url(#SVGID_00000114052752345444777490000009298306416574481024_);fill:#3993F3;" width="353.613" height="2.03"/>
				
					<rect x="72.632" y="195.281" style="clip-path:url(#SVGID_00000114052752345444777490000009298306416574481024_);fill:#3892F3;" width="353.613" height="2.03"/>
				
					<rect x="72.632" y="197.312" style="clip-path:url(#SVGID_00000114052752345444777490000009298306416574481024_);fill:#3891F2;" width="353.613" height="2.03"/>
				
					<rect x="72.632" y="199.342" style="clip-path:url(#SVGID_00000114052752345444777490000009298306416574481024_);fill:#3890F2;" width="353.613" height="2.03"/>
				
					<rect x="72.632" y="201.372" style="clip-path:url(#SVGID_00000114052752345444777490000009298306416574481024_);fill:#378FF2;" width="353.613" height="2.03"/>
				
					<rect x="72.632" y="203.402" style="clip-path:url(#SVGID_00000114052752345444777490000009298306416574481024_);fill:#378EF2;" width="353.613" height="2.03"/>
				
					<rect x="72.632" y="205.433" style="clip-path:url(#SVGID_00000114052752345444777490000009298306416574481024_);fill:#378DF1;" width="353.613" height="2.03"/>
				
					<rect x="72.632" y="207.463" style="clip-path:url(#SVGID_00000114052752345444777490000009298306416574481024_);fill:#368CF1;" width="353.613" height="2.03"/>
				
					<rect x="72.632" y="209.493" style="clip-path:url(#SVGID_00000114052752345444777490000009298306416574481024_);fill:#368BF1;" width="353.613" height="2.03"/>
				
					<rect x="72.632" y="211.524" style="clip-path:url(#SVGID_00000114052752345444777490000009298306416574481024_);fill:#358AF0;" width="353.613" height="2.03"/>
				
					<rect x="72.632" y="213.554" style="clip-path:url(#SVGID_00000114052752345444777490000009298306416574481024_);fill:#3589F0;" width="353.613" height="2.03"/>
				
					<rect x="72.632" y="215.584" style="clip-path:url(#SVGID_00000114052752345444777490000009298306416574481024_);fill:#3588F0;" width="353.613" height="2.03"/>
				
					<rect x="72.632" y="217.615" style="clip-path:url(#SVGID_00000114052752345444777490000009298306416574481024_);fill:#3487F0;" width="353.613" height="2.03"/>
				
					<rect x="72.632" y="219.645" style="clip-path:url(#SVGID_00000114052752345444777490000009298306416574481024_);fill:#3486EF;" width="353.613" height="2.03"/>
				
					<rect x="72.632" y="221.675" style="clip-path:url(#SVGID_00000114052752345444777490000009298306416574481024_);fill:#3385EF;" width="353.613" height="2.03"/>
				
					<rect x="72.632" y="223.705" style="clip-path:url(#SVGID_00000114052752345444777490000009298306416574481024_);fill:#3384EF;" width="353.613" height="2.03"/>
				
					<rect x="72.632" y="225.736" style="clip-path:url(#SVGID_00000114052752345444777490000009298306416574481024_);fill:#3383EF;" width="353.613" height="2.03"/>
				
					<rect x="72.632" y="227.766" style="clip-path:url(#SVGID_00000114052752345444777490000009298306416574481024_);fill:#3282EE;" width="353.613" height="2.03"/>
				
					<rect x="72.632" y="229.796" style="clip-path:url(#SVGID_00000114052752345444777490000009298306416574481024_);fill:#3281EE;" width="353.613" height="2.03"/>
				
					<rect x="72.632" y="231.827" style="clip-path:url(#SVGID_00000114052752345444777490000009298306416574481024_);fill:#3180EE;" width="353.613" height="2.03"/>
				
					<rect x="72.632" y="233.857" style="clip-path:url(#SVGID_00000114052752345444777490000009298306416574481024_);fill:#317FED;" width="353.613" height="2.03"/>
				
					<rect x="72.632" y="235.887" style="clip-path:url(#SVGID_00000114052752345444777490000009298306416574481024_);fill:#317EED;" width="353.613" height="2.03"/>
				
					<rect x="72.632" y="237.918" style="clip-path:url(#SVGID_00000114052752345444777490000009298306416574481024_);fill:#307DED;" width="353.613" height="2.03"/>
				
					<rect x="72.632" y="239.948" style="clip-path:url(#SVGID_00000114052752345444777490000009298306416574481024_);fill:#307CED;" width="353.613" height="2.03"/>
				
					<rect x="72.632" y="241.978" style="clip-path:url(#SVGID_00000114052752345444777490000009298306416574481024_);fill:#307BEC;" width="353.613" height="2.03"/>
				
					<rect x="72.632" y="244.008" style="clip-path:url(#SVGID_00000114052752345444777490000009298306416574481024_);fill:#2F7AEC;" width="353.613" height="2.03"/>
				
					<rect x="72.632" y="246.039" style="clip-path:url(#SVGID_00000114052752345444777490000009298306416574481024_);fill:#2F79EC;" width="353.613" height="2.03"/>
				
					<rect x="72.632" y="248.069" style="clip-path:url(#SVGID_00000114052752345444777490000009298306416574481024_);fill:#2E78EC;" width="353.613" height="2.03"/>
				
					<rect x="72.632" y="250.099" style="clip-path:url(#SVGID_00000114052752345444777490000009298306416574481024_);fill:#2E77EB;" width="353.613" height="2.03"/>
				
					<rect x="72.632" y="252.13" style="clip-path:url(#SVGID_00000114052752345444777490000009298306416574481024_);fill:#2E76EB;" width="353.613" height="2.03"/>
				
					<rect x="72.632" y="254.16" style="clip-path:url(#SVGID_00000114052752345444777490000009298306416574481024_);fill:#2D75EB;" width="353.613" height="2.03"/>
				
					<rect x="72.632" y="256.19" style="clip-path:url(#SVGID_00000114052752345444777490000009298306416574481024_);fill:#2D74EA;" width="353.613" height="2.03"/>
				
					<rect x="72.632" y="258.221" style="clip-path:url(#SVGID_00000114052752345444777490000009298306416574481024_);fill:#2C73EA;" width="353.613" height="2.03"/>
				
					<rect x="72.632" y="260.251" style="clip-path:url(#SVGID_00000114052752345444777490000009298306416574481024_);fill:#2C72EA;" width="353.613" height="2.03"/>
				
					<rect x="72.632" y="262.281" style="clip-path:url(#SVGID_00000114052752345444777490000009298306416574481024_);fill:#2C71EA;" width="353.613" height="2.03"/>
				
					<rect x="72.632" y="264.312" style="clip-path:url(#SVGID_00000114052752345444777490000009298306416574481024_);fill:#2B70E9;" width="353.613" height="2.03"/>
				
					<rect x="72.632" y="266.342" style="clip-path:url(#SVGID_00000114052752345444777490000009298306416574481024_);fill:#2B6FE9;" width="353.613" height="2.03"/>
				
					<rect x="72.632" y="268.372" style="clip-path:url(#SVGID_00000114052752345444777490000009298306416574481024_);fill:#2A6EE9;" width="353.613" height="2.03"/>
				
					<rect x="72.632" y="270.402" style="clip-path:url(#SVGID_00000114052752345444777490000009298306416574481024_);fill:#2A6DE9;" width="353.613" height="2.03"/>
				
					<rect x="72.632" y="272.433" style="clip-path:url(#SVGID_00000114052752345444777490000009298306416574481024_);fill:#2A6CE8;" width="353.613" height="2.03"/>
				
					<rect x="72.632" y="274.463" style="clip-path:url(#SVGID_00000114052752345444777490000009298306416574481024_);fill:#296BE8;" width="353.613" height="2.03"/>
				
					<rect x="72.632" y="276.493" style="clip-path:url(#SVGID_00000114052752345444777490000009298306416574481024_);fill:#296AE8;" width="353.613" height="2.03"/>
				
					<rect x="72.632" y="278.524" style="clip-path:url(#SVGID_00000114052752345444777490000009298306416574481024_);fill:#2869E7;" width="353.613" height="2.03"/>
				
					<rect x="72.632" y="280.554" style="clip-path:url(#SVGID_00000114052752345444777490000009298306416574481024_);fill:#2868E7;" width="353.613" height="2.03"/>
				
					<rect x="72.632" y="282.584" style="clip-path:url(#SVGID_00000114052752345444777490000009298306416574481024_);fill:#2867E7;" width="353.613" height="2.03"/>
				
					<rect x="72.632" y="284.615" style="clip-path:url(#SVGID_00000114052752345444777490000009298306416574481024_);fill:#2765E7;" width="353.613" height="2.03"/>
				
					<rect x="72.632" y="286.645" style="clip-path:url(#SVGID_00000114052752345444777490000009298306416574481024_);fill:#2764E6;" width="353.613" height="2.03"/>
				
					<rect x="72.632" y="288.675" style="clip-path:url(#SVGID_00000114052752345444777490000009298306416574481024_);fill:#2763E6;" width="353.613" height="2.03"/>
				
					<rect x="72.632" y="290.705" style="clip-path:url(#SVGID_00000114052752345444777490000009298306416574481024_);fill:#2662E6;" width="353.613" height="2.03"/>
				
					<rect x="72.632" y="292.736" style="clip-path:url(#SVGID_00000114052752345444777490000009298306416574481024_);fill:#2661E6;" width="353.613" height="2.03"/>
				
					<rect x="72.632" y="294.766" style="clip-path:url(#SVGID_00000114052752345444777490000009298306416574481024_);fill:#2560E5;" width="353.613" height="2.03"/>
				
					<rect x="72.632" y="296.796" style="clip-path:url(#SVGID_00000114052752345444777490000009298306416574481024_);fill:#255FE5;" width="353.613" height="2.03"/>
				
					<rect x="72.632" y="298.827" style="clip-path:url(#SVGID_00000114052752345444777490000009298306416574481024_);fill:#255EE5;" width="353.613" height="2.03"/>
				
					<rect x="72.632" y="300.857" style="clip-path:url(#SVGID_00000114052752345444777490000009298306416574481024_);fill:#245DE4;" width="353.613" height="2.03"/>
				
					<rect x="72.632" y="302.887" style="clip-path:url(#SVGID_00000114052752345444777490000009298306416574481024_);fill:#245CE4;" width="353.613" height="2.03"/>
				
					<rect x="72.632" y="304.918" style="clip-path:url(#SVGID_00000114052752345444777490000009298306416574481024_);fill:#235BE4;" width="353.613" height="2.03"/>
				
					<rect x="72.632" y="306.948" style="clip-path:url(#SVGID_00000114052752345444777490000009298306416574481024_);fill:#235AE4;" width="353.613" height="2.03"/>
				
					<rect x="72.632" y="308.978" style="clip-path:url(#SVGID_00000114052752345444777490000009298306416574481024_);fill:#2359E3;" width="353.613" height="2.03"/>
				
					<rect x="72.632" y="311.008" style="clip-path:url(#SVGID_00000114052752345444777490000009298306416574481024_);fill:#2258E3;" width="353.613" height="2.03"/>
				
					<rect x="72.632" y="313.039" style="clip-path:url(#SVGID_00000114052752345444777490000009298306416574481024_);fill:#2257E3;" width="353.613" height="2.03"/>
				
					<rect x="72.632" y="315.069" style="clip-path:url(#SVGID_00000114052752345444777490000009298306416574481024_);fill:#2156E3;" width="353.613" height="2.03"/>
				
					<rect x="72.632" y="317.099" style="clip-path:url(#SVGID_00000114052752345444777490000009298306416574481024_);fill:#2155E2;" width="353.613" height="2.03"/>
				
					<rect x="72.632" y="319.13" style="clip-path:url(#SVGID_00000114052752345444777490000009298306416574481024_);fill:#2154E2;" width="353.613" height="2.03"/>
				
					<rect x="72.632" y="321.16" style="clip-path:url(#SVGID_00000114052752345444777490000009298306416574481024_);fill:#2053E2;" width="353.613" height="2.03"/>
				
					<rect x="72.632" y="323.19" style="clip-path:url(#SVGID_00000114052752345444777490000009298306416574481024_);fill:#2052E1;" width="353.613" height="2.03"/>
				
					<rect x="72.632" y="325.221" style="clip-path:url(#SVGID_00000114052752345444777490000009298306416574481024_);fill:#2051E1;" width="353.613" height="2.03"/>
				
					<rect x="72.632" y="327.251" style="clip-path:url(#SVGID_00000114052752345444777490000009298306416574481024_);fill:#1F50E1;" width="353.613" height="2.03"/>
				
					<rect x="72.632" y="329.281" style="clip-path:url(#SVGID_00000114052752345444777490000009298306416574481024_);fill:#1F4FE1;" width="353.613" height="2.03"/>
				
					<rect x="72.632" y="331.311" style="clip-path:url(#SVGID_00000114052752345444777490000009298306416574481024_);fill:#1E4EE0;" width="353.613" height="2.03"/>
				
					<rect x="72.632" y="333.342" style="clip-path:url(#SVGID_00000114052752345444777490000009298306416574481024_);fill:#1E4DE0;" width="353.613" height="2.03"/>
				
					<rect x="72.632" y="335.372" style="clip-path:url(#SVGID_00000114052752345444777490000009298306416574481024_);fill:#1E4CE0;" width="353.613" height="2.03"/>
				
					<rect x="72.632" y="337.402" style="clip-path:url(#SVGID_00000114052752345444777490000009298306416574481024_);fill:#1D4BE0;" width="353.613" height="2.03"/>
				
					<rect x="72.632" y="339.433" style="clip-path:url(#SVGID_00000114052752345444777490000009298306416574481024_);fill:#1D4ADF;" width="353.613" height="2.03"/>
				
					<rect x="72.632" y="341.463" style="clip-path:url(#SVGID_00000114052752345444777490000009298306416574481024_);fill:#1C49DF;" width="353.613" height="2.03"/>
				
					<rect x="72.632" y="343.493" style="clip-path:url(#SVGID_00000114052752345444777490000009298306416574481024_);fill:#1C48DF;" width="353.613" height="2.03"/>
				
					<rect x="72.632" y="345.524" style="clip-path:url(#SVGID_00000114052752345444777490000009298306416574481024_);fill:#1C47DE;" width="353.613" height="2.03"/>
				
					<rect x="72.632" y="347.554" style="clip-path:url(#SVGID_00000114052752345444777490000009298306416574481024_);fill:#1B46DE;" width="353.613" height="2.03"/>
				
					<rect x="72.632" y="349.584" style="clip-path:url(#SVGID_00000114052752345444777490000009298306416574481024_);fill:#1B45DE;" width="353.613" height="2.03"/>
				
					<rect x="72.632" y="351.615" style="clip-path:url(#SVGID_00000114052752345444777490000009298306416574481024_);fill:#1A44DE;" width="353.613" height="2.03"/>
				
					<rect x="72.632" y="353.645" style="clip-path:url(#SVGID_00000114052752345444777490000009298306416574481024_);fill:#1A43DD;" width="353.613" height="2.03"/>
				
					<rect x="72.632" y="355.675" style="clip-path:url(#SVGID_00000114052752345444777490000009298306416574481024_);fill:#1A42DD;" width="353.613" height="2.03"/>
				
					<rect x="72.632" y="357.705" style="clip-path:url(#SVGID_00000114052752345444777490000009298306416574481024_);fill:#1941DD;" width="353.613" height="2.03"/>
				
					<rect x="72.632" y="359.736" style="clip-path:url(#SVGID_00000114052752345444777490000009298306416574481024_);fill:#1940DD;" width="353.613" height="2.03"/>
				
					<rect x="72.632" y="361.766" style="clip-path:url(#SVGID_00000114052752345444777490000009298306416574481024_);fill:#193FDC;" width="353.613" height="2.03"/>
				
					<rect x="72.632" y="363.796" style="clip-path:url(#SVGID_00000114052752345444777490000009298306416574481024_);fill:#183EDC;" width="353.613" height="2.03"/>
				
					<rect x="72.632" y="365.827" style="clip-path:url(#SVGID_00000114052752345444777490000009298306416574481024_);fill:#183DDC;" width="353.613" height="2.03"/>
				
					<rect x="72.632" y="367.857" style="clip-path:url(#SVGID_00000114052752345444777490000009298306416574481024_);fill:#173CDB;" width="353.613" height="2.03"/>
				
					<rect x="72.632" y="369.887" style="clip-path:url(#SVGID_00000114052752345444777490000009298306416574481024_);fill:#173BDB;" width="353.613" height="2.03"/>
				
					<rect x="72.632" y="371.918" style="clip-path:url(#SVGID_00000114052752345444777490000009298306416574481024_);fill:#173ADB;" width="353.613" height="2.03"/>
				
					<rect x="72.632" y="373.948" style="clip-path:url(#SVGID_00000114052752345444777490000009298306416574481024_);fill:#1639DB;" width="353.613" height="2.03"/>
				
					<rect x="72.632" y="375.978" style="clip-path:url(#SVGID_00000114052752345444777490000009298306416574481024_);fill:#1638DA;" width="353.613" height="2.03"/>
				
					<rect x="72.632" y="378.008" style="clip-path:url(#SVGID_00000114052752345444777490000009298306416574481024_);fill:#1537DA;" width="353.613" height="2.03"/>
				
					<rect x="72.632" y="380.039" style="clip-path:url(#SVGID_00000114052752345444777490000009298306416574481024_);fill:#1536DA;" width="353.613" height="2.03"/>
				
					<rect x="72.632" y="382.069" style="clip-path:url(#SVGID_00000114052752345444777490000009298306416574481024_);fill:#1535D9;" width="353.613" height="2.03"/>
				
					<rect x="72.632" y="384.099" style="clip-path:url(#SVGID_00000114052752345444777490000009298306416574481024_);fill:#1434D9;" width="353.613" height="2.03"/>
				
					<rect x="72.632" y="386.13" style="clip-path:url(#SVGID_00000114052752345444777490000009298306416574481024_);fill:#1433D9;" width="353.613" height="2.03"/>
				
					<rect x="72.632" y="388.16" style="clip-path:url(#SVGID_00000114052752345444777490000009298306416574481024_);fill:#1332D9;" width="353.613" height="2.03"/>
				
					<rect x="72.632" y="390.19" style="clip-path:url(#SVGID_00000114052752345444777490000009298306416574481024_);fill:#1331D8;" width="353.613" height="2.03"/>
				
					<rect x="72.632" y="392.221" style="clip-path:url(#SVGID_00000114052752345444777490000009298306416574481024_);fill:#1330D8;" width="353.613" height="2.03"/>
				
					<rect x="72.632" y="394.251" style="clip-path:url(#SVGID_00000114052752345444777490000009298306416574481024_);fill:#122FD8;" width="353.613" height="2.03"/>
				
					<rect x="72.632" y="396.281" style="clip-path:url(#SVGID_00000114052752345444777490000009298306416574481024_);fill:#122ED8;" width="353.613" height="2.03"/>
				
					<rect x="72.632" y="398.311" style="clip-path:url(#SVGID_00000114052752345444777490000009298306416574481024_);fill:#122DD7;" width="353.613" height="2.03"/>
				
					<rect x="72.632" y="400.342" style="clip-path:url(#SVGID_00000114052752345444777490000009298306416574481024_);fill:#112CD7;" width="353.613" height="2.03"/>
				
					<rect x="72.632" y="402.372" style="clip-path:url(#SVGID_00000114052752345444777490000009298306416574481024_);fill:#112BD7;" width="353.613" height="2.03"/>
				
					<rect x="72.632" y="404.402" style="clip-path:url(#SVGID_00000114052752345444777490000009298306416574481024_);fill:#102AD6;" width="353.613" height="2.03"/>
				
					<rect x="72.632" y="406.433" style="clip-path:url(#SVGID_00000114052752345444777490000009298306416574481024_);fill:#1029D6;" width="353.613" height="2.03"/>
				
					<rect x="72.632" y="408.463" style="clip-path:url(#SVGID_00000114052752345444777490000009298306416574481024_);fill:#1028D6;" width="353.613" height="2.03"/>
				
					<rect x="72.632" y="410.493" style="clip-path:url(#SVGID_00000114052752345444777490000009298306416574481024_);fill:#0F27D6;" width="353.613" height="2.03"/>
				
					<rect x="72.632" y="412.524" style="clip-path:url(#SVGID_00000114052752345444777490000009298306416574481024_);fill:#0F26D5;" width="353.613" height="2.03"/>
				
					<rect x="72.632" y="414.554" style="clip-path:url(#SVGID_00000114052752345444777490000009298306416574481024_);fill:#0E25D5;" width="353.613" height="2.03"/>
				
					<rect x="72.632" y="416.584" style="clip-path:url(#SVGID_00000114052752345444777490000009298306416574481024_);fill:#0E24D5;" width="353.613" height="2.03"/>
				
					<rect x="72.632" y="418.615" style="clip-path:url(#SVGID_00000114052752345444777490000009298306416574481024_);fill:#0E23D5;" width="353.613" height="2.03"/>
				
					<rect x="72.632" y="420.645" style="clip-path:url(#SVGID_00000114052752345444777490000009298306416574481024_);fill:#0D22D4;" width="353.613" height="2.03"/>
				
					<rect x="72.632" y="422.675" style="clip-path:url(#SVGID_00000114052752345444777490000009298306416574481024_);fill:#0D21D4;" width="353.613" height="2.03"/>
				
					<rect x="72.632" y="424.705" style="clip-path:url(#SVGID_00000114052752345444777490000009298306416574481024_);fill:#0C20D4;" width="353.613" height="2.03"/>
				
					<rect x="72.632" y="426.736" style="clip-path:url(#SVGID_00000114052752345444777490000009298306416574481024_);fill:#0C1FD3;" width="353.613" height="2.03"/>
				
					<rect x="72.632" y="428.766" style="clip-path:url(#SVGID_00000114052752345444777490000009298306416574481024_);fill:#0C1ED3;" width="353.613" height="0.321"/>
			</g>
		</g>
	</g>
	<g>
		<path d="M249.442,432.105c-48.028,0.001-93.179-18.7-127.144-52.657c-33.969-33.962-52.679-79.119-52.684-127.153
			c-0.005-48.035,18.695-93.196,52.657-127.165c33.883-33.89,78.905-52.592,126.815-52.684c0.112-0.012,0.225-0.019,0.338-0.019
			c0.001,0,0.001,0,0.001,0c48.034,0.02,93.192,18.738,127.156,52.705s52.676,79.127,52.692,127.161
			c-0.005,48.028-18.711,93.181-52.671,127.141c-33.961,33.961-79.113,52.666-127.139,52.671
			C249.457,432.105,249.448,432.105,249.442,432.105z M249.756,78.485c-0.108,0.012-0.219,0.018-0.331,0.018
			c-95.819,0.011-173.764,77.973-173.754,173.791c0.005,46.416,18.085,90.052,50.91,122.87
			c32.819,32.812,76.455,50.882,122.861,50.884c0.009,0,0.011,0,0.02,0c95.798-0.01,173.743-77.955,173.754-173.754
			C423.185,156.608,345.403,78.706,249.756,78.485z"/>
	</g>
	<g>
		<path style="fill:#FFE01F;" d="M247.686,130.321c-58.928,0-107.823,41.924-116.853,96.714H364.54
			C355.509,172.245,306.614,130.321,247.686,130.321"/>
	</g>
	<g>
		<path d="M364.54,230.643H130.833c-1.059,0-2.066-0.466-2.751-1.274c-0.686-0.808-0.981-1.876-0.809-2.922
			c4.54-27.543,19.087-52.788,40.961-71.084c22.089-18.476,50.306-28.651,79.453-28.651s57.364,10.175,79.453,28.651
			c21.875,18.296,36.421,43.541,40.961,71.084c0.172,1.046-0.124,2.114-0.809,2.922S365.599,230.643,364.54,230.643z
			 M135.168,223.426h225.038c-10.652-52.112-57.291-89.497-112.519-89.497C192.458,133.929,145.819,171.314,135.168,223.426z"/>
	</g>
	<g>
		<path style="fill:#EB0000;" d="M139.259,199.772c72.001-12.186,149.085-12.186,217.478,2.928
			c3.948,6.027,5.157,13.414,7.142,20.405L132.59,221.99C133.251,214.603,134.177,207.197,139.259,199.772"/>
	</g>
	<g>
		<path d="M368.661,226.736l-240.015-1.156l0.35-3.911c0.721-8.058,1.821-15.952,7.285-23.935l0.865-1.264l1.51-0.256
			c75.029-12.698,152.754-11.645,218.859,2.963l1.435,0.317l0.805,1.229c3.403,5.195,4.915,11.098,6.377,16.808
			c0.389,1.518,0.791,3.087,1.217,4.589L368.661,226.736z M136.584,218.401l222.596,1.072c-0.013-0.051-0.026-0.102-0.039-0.153
			c-1.246-4.864-2.43-9.484-4.678-13.425c-64.437-14-139.962-15.003-213.045-2.828C138.365,208.027,137.231,213.04,136.584,218.401z
			"/>
	</g>
	<g>
		<path style="fill:#FFE01F;" d="M57.244,243.698c163.066,33.894,305.123,26.961,376.689-3.325
			C323.674,190.496,130.965,198.714,57.244,243.698"/>
	</g>
	<g>
		<path d="M264.375,269.864c-64.851,0-136.338-7.765-207.865-22.633l-8.938-1.857l7.793-4.756
			c36.286-22.142,102.249-36.259,176.449-37.763c77.817-1.576,152.029,10.899,203.607,34.231l7.512,3.398l-7.593,3.213
			c-37.205,15.745-90.93,24.74-155.367,26.015C274.822,269.813,269.615,269.864,264.375,269.864z M67.489,242.099
			c141.31,28.106,279.054,27.329,357.031-1.862c-50.175-20.695-119.691-31.644-192.56-30.167
			C164.423,211.439,104.051,223.295,67.489,242.099z"/>
	</g>
	<g>
		<path style="fill:#FFFFFF;" d="M129.813,248.705c5.667-17.684,31.457-23.541,117.854-24.334s115.663,4.081,119.027,21.557
			c4.742,24.939-17.363,125.091-119.027,125.091C145.513,371.018,122.633,271.036,129.813,248.705"/>
	</g>
	<g>
		<path d="M247.667,374.627c-52.579,0-82.501-25.909-98.344-47.644c-21.655-29.708-27.314-65.791-22.947-79.379l0,0
			c6.415-20.016,33.613-26.036,121.258-26.841c45.971-0.422,73.284,0.769,91.317,3.983c19.58,3.49,29.229,9.812,31.286,20.5
			c2.802,14.738-3.066,55.66-29.807,87.965c-10.414,12.581-22.898,22.47-37.104,29.393
			C286.954,370.582,268.228,374.627,247.667,374.627z M264.033,227.9c-5.2,0-10.635,0.027-16.332,0.079
			c-81.586,0.749-109.396,6.053-114.452,21.827l-0.001,0.003c-3.432,10.676,0.953,44.174,21.908,72.922
			c14.857,20.382,42.967,44.678,92.512,44.678c36.551,0,65.89-13.054,87.203-38.801c24.903-30.085,30.777-68.864,28.278-82.007
			C360.515,232.916,335.035,227.9,264.033,227.9z"/>
	</g>
	<g style="opacity:0.99;">
		<g>
			<defs>
				
					<rect id="SVGID_00000103954073180616273190000008595231397878398126_" x="157.585" y="251.482" width="74.514" height="74.514"/>
			</defs>
			<clipPath id="SVGID_00000075858510575716210590000013271270381905605811_">
				<use xlink:href="#SVGID_00000103954073180616273190000008595231397878398126_"  style="overflow:visible;"/>
			</clipPath>
			<g style="clip-path:url(#SVGID_00000075858510575716210590000013271270381905605811_);">
				<path d="M232.099,288.739c0,20.577-16.681,37.257-37.257,37.257c-20.576,0-37.257-16.681-37.257-37.257
					c0-20.577,16.681-37.257,37.257-37.257h0.019c20.556-0.01,37.228,16.645,37.239,37.2V288.739z"/>
			</g>
		</g>
	</g>
	<g style="opacity:0.99;">
		<g>
			<defs>
				
					<rect id="SVGID_00000047745187398970367670000015236246585527673255_" x="263.235" y="251.482" width="74.514" height="74.514"/>
			</defs>
			<clipPath id="SVGID_00000168076446863556796850000017862967462598324118_">
				<use xlink:href="#SVGID_00000047745187398970367670000015236246585527673255_"  style="overflow:visible;"/>
			</clipPath>
			<g style="clip-path:url(#SVGID_00000168076446863556796850000017862967462598324118_);">
				<path d="M337.749,288.739c0,20.577-16.681,37.257-37.257,37.257c-20.577,0-37.257-16.681-37.257-37.257
					c0-20.577,16.68-37.257,37.257-37.257c20.566-0.01,37.246,16.653,37.257,37.219V288.739z"/>
			</g>
		</g>
	</g>
	<g style="opacity:0.99;">
		<g>
			<defs>
				<rect id="SVGID_00000179637921281492710930000010980525201083052221_" x="232.648" y="320.423" width="30.04" height="30.04"/>
			</defs>
			<clipPath id="SVGID_00000009555007872317938630000015689984404350333593_">
				<use xlink:href="#SVGID_00000179637921281492710930000010980525201083052221_"  style="overflow:visible;"/>
			</clipPath>
			<g style="clip-path:url(#SVGID_00000009555007872317938630000015689984404350333593_);">
				<path d="M262.687,335.443c0,8.295-6.724,15.02-15.02,15.02c-8.295,0-15.02-6.724-15.02-15.02s6.725-15.02,15.02-15.02
					c8.285-0.01,15.009,6.698,15.02,14.983V335.443z"/>
			</g>
		</g>
	</g>
	<g>
		<path style="fill:#FFFFFF;" d="M281.85,387.251c-0.963-3.122-2.019-6.286-3.041-9.347c-0.705-2.112-1.411-4.224-2.093-6.343
			l-0.787-2.447l2.488-0.643c3.814-0.984,7.539-2.293,11.958-3.956l1.708-0.642l1.089,1.463c3.023,4.059,5.643,8.592,8.009,13.859
			l0.826,1.838l-1.656,1.147c-5.143,3.562-11.008,5.448-15.542,6.694l-2.266,0.621L281.85,387.251z"/>
	</g>
	<g>
		<path style="fill:#020202;" d="M291.228,366.784c3.089,4.149,5.621,8.686,7.742,13.405c-4.452,3.083-9.619,4.925-14.804,6.349
			c-1.624-5.27-3.453-10.473-5.143-15.719C283.177,369.746,287.218,368.293,291.228,366.784 M292.936,360.964l-3.415,1.284
			c-3.507,1.319-7.593,2.816-11.71,3.878l-4.979,1.285l1.577,4.894c0.688,2.133,1.406,4.284,2.101,6.364
			c1.018,3.048,2.07,6.199,3.024,9.295l1.383,4.49l4.531-1.244c4.72-1.296,10.835-3.267,16.281-7.038l3.312-2.294l-1.651-3.676
			c-2.439-5.429-5.146-10.11-8.275-14.313L292.936,360.964z"/>
	</g>
	<g>
		<path style="fill:#FFFFFF;" d="M215.83,389.461c-5.342-1.365-10.96-2.978-15.779-6.34l-1.643-1.145l0.818-1.83
			c2.017-4.513,4.497-8.945,7.583-13.548l1.021-1.522l1.742,0.568c3.614,1.177,7.351,2.395,11.109,3.404l2.222,0.597l-0.482,2.25
			c-0.624,2.915-1.319,5.85-1.991,8.688c-0.548,2.312-1.114,4.702-1.635,7.054l-0.541,2.442L215.83,389.461z"/>
	</g>
	<g>
		<path style="fill:#020202;" d="M208.822,367.947c3.719,1.212,7.445,2.423,11.231,3.441c-1.127,5.265-2.459,10.473-3.622,15.725
			c-5.216-1.332-10.528-2.865-14.992-5.979C203.497,376.525,206.011,372.139,208.822,367.947 M206.838,362.204l-2.041,3.044
			c-3.164,4.719-5.71,9.269-7.783,13.909l-1.635,3.659l3.287,2.293c5.151,3.591,11.008,5.279,16.565,6.698l4.849,1.239l1.082-4.886
			c0.517-2.333,1.081-4.715,1.626-7.017c0.675-2.851,1.374-5.8,2.004-8.742l0.963-4.5l-4.444-1.194
			c-3.699-0.994-7.404-2.201-10.988-3.369L206.838,362.204z"/>
	</g>
	<g>
		<path style="fill:#FFFFFF;" d="M259.176,387.755c-0.552-4.288-1.123-8.722-1.613-13.1l-0.27-2.421l2.422-0.257
			c5.712-0.607,10.867-1.494,15.759-2.71l2.2-0.548l0.692,2.159c1.009,3.144,2.061,6.337,3.08,9.424
			c0.679,2.058,1.357,4.116,2.029,6.176l0.825,2.528l-2.595,0.586c-5.893,1.33-12.326,2.199-19.669,2.659l-2.267,0.142
			L259.176,387.755z"/>
	</g>
	<g>
		<path style="fill:#020202;" d="M276.06,371.617c1.672,5.216,3.417,10.407,5.113,15.611c-6.336,1.43-12.805,2.199-19.287,2.605
			c-0.66-5.149-1.339-10.292-1.915-15.447C265.387,373.81,270.772,372.933,276.06,371.617 M279.291,365.822l-4.4,1.093
			c-4.787,1.19-9.835,2.058-15.432,2.653l-4.844,0.514l0.54,4.842c0.492,4.404,1.064,8.853,1.619,13.155l0.305,2.37l0.578,4.504
			l4.532-0.284c7.471-0.468,14.029-1.355,20.05-2.714l5.19-1.171l-1.649-5.059c-0.671-2.056-1.348-4.11-2.026-6.164
			c-1.018-3.089-2.073-6.282-3.08-9.423L279.291,365.822z"/>
	</g>
	<g>
		<path style="fill:#FFFFFF;" d="M236.413,392.233c-5.666-0.328-11.524-1.035-17.409-2.1l-2.487-0.45l0.554-2.465
			c0.503-2.238,1.029-4.471,1.555-6.704c0.685-2.906,1.394-5.911,2.033-8.869l0.503-2.327l2.336,0.462
			c4.462,0.883,9.656,1.857,14.815,2.25l2.519,0.193l-0.297,2.508c-0.371,3.134-0.683,6.341-0.984,9.442
			c-0.19,1.964-0.381,3.93-0.588,5.895l-0.242,2.299L236.413,392.233z"/>
	</g>
	<g>
		<path style="fill:#020202;" d="M223.026,372.157c4.991,0.987,10.013,1.902,15.101,2.29c-0.606,5.113-1.036,10.243-1.575,15.367
			c-5.743-0.333-11.461-1.041-17.119-2.065C220.603,382.545,221.899,377.372,223.026,372.157 M219.295,366.479l-1.006,4.655
			c-0.635,2.939-1.342,5.936-2.024,8.834c-0.518,2.196-1.053,4.467-1.559,6.718l-1.108,4.931l4.973,0.9
			c5.981,1.082,11.936,1.8,17.701,2.135l4.616,0.267l0.483-4.598c0.208-1.977,0.402-3.977,0.59-5.912
			c0.3-3.09,0.61-6.284,0.978-9.393l0.595-5.018l-5.039-0.384c-5.026-0.383-10.135-1.342-14.529-2.212L219.295,366.479z"/>
	</g>
	<g>
		<path style="fill:#FFFFFF;" d="M250.066,392.63c-3.093,0-6.447-0.065-10.555-0.205l-2.586-0.088l0.257-2.575
			c0.143-1.428,0.291-2.854,0.44-4.281c0.373-3.583,0.758-7.288,1.039-10.924l0.176-2.283l2.985,0.062
			c2.347,0.05,4.773,0.101,7.147,0.101c2.952,0,5.404-0.077,7.715-0.242l2.302-0.165l0.276,2.292
			c0.273,2.273,0.557,4.546,0.84,6.818c0.357,2.859,0.713,5.718,1.05,8.58l0.303,2.574l-2.588,0.13
			C256.101,392.562,253.221,392.63,250.066,392.63"/>
	</g>
	<g>
		<path style="fill:#020202;" d="M256.858,374.61c0.617,5.131,1.284,10.255,1.889,15.393c-2.895,0.145-5.79,0.204-8.686,0.204
			c-3.489,0-6.979-0.085-10.468-0.204c0.509-5.089,1.091-10.165,1.484-15.259c2.629,0.055,5.262,0.116,7.892,0.116
			C251.601,374.859,254.232,374.798,256.858,374.61 M261.117,369.447l-4.606,0.33c-2.251,0.161-4.647,0.236-7.542,0.236
			c-2.344,0-4.752-0.05-7.081-0.099l-0.711-0.015l-4.579-0.095l-0.353,4.567c-0.279,3.601-0.661,7.287-1.033,10.852
			c-0.149,1.432-0.298,2.865-0.442,4.298l-0.515,5.148l5.171,0.177c4.131,0.141,7.51,0.207,10.633,0.207
			c3.197,0,6.118-0.07,8.929-0.21l5.176-0.261l-0.607-5.147c-0.339-2.882-0.703-5.799-1.055-8.621
			c-0.282-2.261-0.564-4.521-0.836-6.783L261.117,369.447z"/>
	</g>
	<g>
		<path style="fill:#FFFFFF;" d="M288.022,406.064c-1.466-4.905-3.141-9.852-4.761-14.637l-1.193-3.523l2.413-0.716
			c4.621-1.371,9.924-3.083,14.371-6.078l2.603-1.752l1.038,2.962c2.044,5.836,3.454,11.234,4.309,16.502l0.237,1.456l-1.185,0.878
			c-4.469,3.314-9.777,5.104-14.847,6.545l-2.299,0.654L288.022,406.064z"/>
	</g>
	<g>
		<path style="fill:#020202;" d="M300.205,383.121c1.835,5.24,3.313,10.601,4.204,16.089c-4.149,3.078-9.141,4.761-14.066,6.16
			c-1.593-5.33-3.392-10.595-5.173-15.859C290.398,387.961,295.644,386.192,300.205,383.121 M302.704,375.596l-5.205,3.505
			c-4.161,2.802-9.257,4.444-13.706,5.765l-4.825,1.431l1.613,4.768l0.394,1.165c1.61,4.756,3.275,9.674,4.726,14.527l1.369,4.581
			l4.598-1.307c5.291-1.503,10.847-3.383,15.628-6.93l2.369-1.757l-0.472-2.911c-0.877-5.408-2.321-10.94-4.414-16.915
			L302.704,375.596z"/>
	</g>
	<g>
		<path style="fill:#FFFFFF;" d="M211.534,408.36c-7.203-1.765-12.662-4.034-17.182-7.141l-1.296-0.891l0.286-1.546
			c0.992-5.371,2.736-10.397,4.587-15.499l1.031-2.842l2.55,1.625c3.81,2.429,8.501,4.215,14.766,5.622l2.368,0.532l-0.537,2.367
			c-0.433,1.911-0.877,3.82-1.321,5.729c-0.777,3.343-1.581,6.799-2.307,10.197l-0.522,2.441L211.534,408.36z"/>
	</g>
	<g>
		<path style="fill:#020202;" d="M200.207,384.108c4.713,3.005,10.116,4.725,15.538,5.943c-1.206,5.318-2.496,10.625-3.635,15.956
			c-5.761-1.411-11.461-3.399-16.386-6.784C196.682,394.043,198.414,389.051,200.207,384.108 M197.714,376.772l-2.062,5.684
			c-1.812,4.995-3.667,10.336-4.692,15.885l-0.572,3.093l2.591,1.781c4.768,3.279,10.481,5.662,17.978,7.499l4.849,1.188
			l1.043-4.882c0.721-3.379,1.523-6.826,2.298-10.159c0.445-1.912,0.89-3.824,1.323-5.738l1.073-4.736l-4.737-1.064
			c-5.983-1.344-10.43-3.028-13.995-5.3L197.714,376.772z"/>
	</g>
	<g>
		<path style="fill:#FFFFFF;" d="M261.656,407.935c-0.606-4.924-1.211-9.843-1.812-14.768l-0.31-2.534l2.548-0.176
			c5.835-0.403,12.716-1.033,19.509-2.653l2.164-0.517l0.699,2.112c0.878,2.653,1.754,5.308,2.63,7.963
			c0.887,2.691,1.774,5.382,2.665,8.071l0.842,2.542l-2.614,0.584c-7.404,1.655-15.327,2.753-23.547,3.265l-2.277,0.142
			L261.656,407.935z"/>
	</g>
	<g>
		<path style="fill:#020202;" d="M282.154,390.16c1.769,5.343,3.525,10.692,5.294,16.034c-7.62,1.703-15.381,2.726-23.17,3.211
			c-0.678-5.513-1.357-11.019-2.029-16.531C268.93,392.413,275.629,391.717,282.154,390.16 M285.356,384.414l-4.328,1.033
			c-6.624,1.58-13.379,2.198-19.113,2.593l-5.096,0.351l0.618,5.071c0.606,4.971,1.218,9.937,1.829,14.907l0.201,1.628l0.557,4.529
			l4.553-0.283c8.344-0.519,16.394-1.636,23.925-3.318l5.228-1.168l-1.683-5.085c-0.884-2.67-1.764-5.34-2.645-8.012
			c-0.882-2.674-1.764-5.349-2.649-8.023L285.356,384.414z"/>
	</g>
	<g>
		<path style="fill:#FFFFFF;" d="M234.525,411.733c-5.857-0.318-11.984-1.113-19.864-2.576l-2.444-0.454l0.516-2.431
			c0.583-2.745,1.225-5.512,1.846-8.188c0.598-2.578,1.218-5.243,1.777-7.867l0.497-2.327l2.336,0.456
			c5.088,0.99,10.727,1.682,17.239,2.111l2.508,0.165l-0.584,5.649c-0.452,4.341-0.92,8.83-1.28,13.241l-0.192,2.35L234.525,411.733
			z"/>
	</g>
	<g>
		<path style="fill:#020202;" d="M218.726,390.723c5.784,1.127,11.661,1.763,17.543,2.151c-0.564,5.476-1.163,10.952-1.612,16.44
			c-6.572-0.357-13.09-1.339-19.553-2.539C216.242,401.409,217.58,396.09,218.726,390.723 M214.979,385.057l-0.993,4.656
			c-0.555,2.602-1.172,5.257-1.768,7.825c-0.623,2.687-1.268,5.465-1.856,8.232l-1.032,4.864l4.888,0.907
			c7.88,1.462,14.29,2.292,20.175,2.612l4.709,0.256l0.384-4.701c0.357-4.378,0.823-8.849,1.274-13.173
			c0.11-1.055,0.219-2.11,0.328-3.165l0.514-5.001l-5.017-0.331c-6.406-0.422-11.945-1.1-16.934-2.072L214.979,385.057z"/>
	</g>
	<g>
		<path style="fill:#FFFFFF;" d="M249.939,412.204c-4.238,0-8.411-0.07-12.404-0.208l-2.619-0.091l0.295-2.604
			c0.603-5.314,1.106-10.609,1.655-16.483l0.213-2.288l2.297,0.092c4.112,0.166,7.476,0.243,10.589,0.243
			c3.25,0,6.207-0.084,9.04-0.257l2.291-0.141l0.265,2.28c0.336,2.901,0.711,5.853,1.074,8.71c0.334,2.628,0.668,5.257,0.978,7.889
			l0.311,2.637l-2.654,0.07C257.387,412.153,253.575,412.204,249.939,412.204"/>
	</g>
	<g>
		<path style="fill:#020202;" d="M259.154,393.025c0.642,5.537,1.399,11.061,2.053,16.603c-3.756,0.099-7.512,0.153-11.269,0.153
			c-4.106,0-8.213-0.064-12.319-0.207c0.624-5.501,1.145-11.019,1.66-16.531c3.559,0.143,7.121,0.245,10.683,0.245
			C253.027,393.288,256.091,393.213,259.154,393.025 M263.438,387.907l-4.581,0.281c-2.784,0.17-5.693,0.254-8.895,0.254
			c-3.078,0-6.411-0.077-10.488-0.241l-4.593-0.185l-0.427,4.576c-0.547,5.859-1.049,11.14-1.65,16.436l-0.591,5.208l5.238,0.182
			c4.019,0.139,8.221,0.21,12.487,0.21c3.656,0,7.49-0.051,11.395-0.154l5.309-0.139l-0.622-5.274
			c-0.314-2.651-0.654-5.331-0.983-7.922c-0.362-2.845-0.735-5.788-1.07-8.672L263.438,387.907z"/>
	</g>
	<g>
		<path style="fill:#FFFFFF;" d="M250.481,449.009c-7.94,0-15.658-1.418-22.939-4.214c-11.813-4.361-21.479-11.487-27.926-20.598
			c-4.453-6.305-6.87-13.966-6.806-21.573l0.036-4.249l3.639,2.195c9.985,6.024,21.826,7.746,34.098,9.106
			c6.919,0.542,13.644,0.817,19.988,0.817c9.529,0,18.692-0.62,27.234-1.845c8.205-1.316,17.667-3.126,25.615-7.904l3.565-2.143
			l0.105,4.158c0.246,9.732-3.364,19.433-9.905,26.614c-9.338,10.782-22.102,15.607-31.158,17.748
			C260.985,448.371,255.746,449.009,250.481,449.009"/>
	</g>
	<g>
		<path style="fill:#020202;" d="M195.234,402.645c10.552,6.366,23.079,8.11,35.121,9.443c6.718,0.528,13.468,0.827,20.217,0.827
			c9.225,0,18.446-0.561,27.577-1.869c9.141-1.466,18.488-3.399,26.52-8.226c0.23,9.098-3.144,18.19-9.275,24.92
			c-7.681,8.868-18.627,14.351-29.924,17.022c-4.902,1.216-9.946,1.824-14.99,1.824c-7.52,0-15.036-1.351-22.071-4.053
			c-10.534-3.889-20.281-10.498-26.817-19.735C197.457,416.94,195.174,409.822,195.234,402.645 M190.46,394.104l-0.071,8.499
			c-0.068,8.111,2.505,16.275,7.248,22.989c6.727,9.508,16.776,16.933,29.067,21.476c7.551,2.895,15.55,4.363,23.778,4.363
			c5.451,0,10.879-0.66,16.131-1.96c9.39-2.224,22.619-7.241,32.407-18.514c6.932-7.634,10.756-17.931,10.495-28.261l-0.21-8.317
			l-7.131,4.286c-7.565,4.547-16.738,6.303-24.75,7.589c-8.418,1.204-17.451,1.814-26.851,1.814c-6.27,0-12.917-0.271-19.76-0.806
			c-11.979-1.328-23.52-3.003-33.075-8.768L190.46,394.104z"/>
	</g>
</g>
</svg>
